<?xml version="1.0" encoding="UTF-8"?>
<svg version="1.1" xmlns="http://www.w3.org/2000/svg" width="2036" height="947">
<path d="M0 0 C3.81734326 0.54705248 5.15592845 2.2282353 7.84480286 4.96070862 C8.33011475 5.44689667 8.81542664 5.93308472 9.31544495 6.43400574 C10.91755339 8.04469524 12.50131705 9.6722632 14.08576965 11.30030823 C15.20171766 12.42813366 16.31885837 13.55478008 17.43713379 14.68029785 C20.38282233 17.65075239 23.31365304 20.63543806 26.24116516 23.62379456 C30.34859319 27.81144251 34.47553295 31.97987159 38.60070801 36.15002441 C40.79533139 38.3686255 42.98423825 40.59262636 45.16860962 42.82131958 C49.96572387 47.70316467 54.78250436 52.49692586 60.01367188 56.92114258 C63.09864996 59.57318961 65.95466403 62.41165331 68.7224884 65.39015198 C69.4237384 66.13265198 70.1249884 66.87515198 70.8474884 67.64015198 C72.36022266 72.39445965 70.21226989 76.77311365 68.7224884 81.39015198 C66.98256079 87.09670028 66.49862731 92.62125305 66.4099884 98.57765198 C66.38352234 99.59411804 66.38352234 99.59411804 66.35652161 100.63111877 C66.36280181 105.28361017 67.37128704 108.40117447 69.7224884 112.39015198 C73.91131043 110.64280228 74.98238073 108.6975083 76.82991028 104.69874573 C78.31786064 100.85026142 79.17001862 96.92881138 79.9724884 92.89015198 C80.23158997 91.65651917 80.23158997 91.65651917 80.4959259 90.39796448 C80.91464861 88.39740044 81.31999713 86.39404468 81.7224884 84.39015198 C83.82775879 84.02990723 83.82775879 84.02990723 86.7224884 84.39015198 C89.03779336 86.24308184 90.99116472 88.03661204 93.03816223 90.15406799 C93.65027054 90.76705246 94.26237885 91.38003693 94.89303589 92.01159668 C96.91713026 94.04428196 98.92303498 96.09400074 100.92951965 98.14405823 C102.33693437 99.5633457 103.74553709 100.981456 105.15527344 102.3984375 C108.87031273 106.13825651 112.57055562 109.89237556 116.26747131 113.65010071 C121.46009844 118.92295631 126.67227085 124.1765003 131.88256836 129.43188477 C134.65582708 132.22920471 137.4234245 135.03193988 140.18655396 137.83926392 C148.38697511 146.15905821 148.38697511 146.15905821 157.06820679 153.97012329 C159.8269567 156.33822312 162.38067941 158.90526066 164.94514465 161.47999573 C165.49432053 162.02821487 166.0434964 162.57643402 166.60931396 163.14126587 C167.75739678 164.28867518 168.90424603 165.43732006 170.04988098 166.58717346 C171.7814354 168.32408798 173.51827199 170.05559087 175.25569153 171.78663635 C193.95890417 190.47712549 193.95890417 190.47712549 193.99702549 196.9005661 C194.01252377 198.29532472 194.01252377 198.29532472 194.02833515 199.71826029 C194.02960925 200.74166057 194.03088334 201.76506085 194.03219604 202.81947327 C194.04136643 203.9055454 194.05053682 204.99161754 194.0599851 206.11060095 C194.08847849 209.76953933 194.10279549 213.42839882 194.11726379 217.0874176 C194.13478003 219.70412272 194.15317772 222.32082207 194.1723938 224.93751526 C194.21254516 230.58664421 194.24552606 236.23577876 194.2737751 241.88497925 C194.31485146 250.0822026 194.36766508 258.2793182 194.42346828 266.47645301 C194.5140248 279.81418105 194.5963409 293.15194622 194.67292786 306.48976135 C194.74697585 319.3804021 194.82275299 332.27102897 194.90242004 345.16163635 C194.90730318 345.9520711 194.91218633 346.74250585 194.91721744 347.55689317 C194.97082826 356.21887805 195.02550209 364.88085556 195.08174038 373.54282379 C195.08671105 374.30849119 195.09168172 375.07415858 195.09680302 375.86302802 C195.11672308 378.92794784 195.13666807 381.99286748 195.15676122 385.05778617 C195.21519426 393.97191595 195.2704222 402.88605026 195.3194698 411.80023688 C195.35049549 417.41684105 195.38438314 423.03342335 195.420353 428.64999801 C195.44087163 431.87353151 195.45961138 435.09705737 195.47544861 438.32061768 C195.5095995 445.20074236 195.57325196 452.07931821 195.67893529 458.95872688 C195.70911572 461.33655661 195.72683483 463.71456472 195.73463893 466.09257317 C195.74857222 469.78879886 195.80084717 473.48286147 195.86016846 477.17860413 C195.85597588 478.29918292 195.8517833 479.41976171 195.84746367 480.57429743 C195.99291711 486.87211478 196.69736667 490.62288818 201.16221291 495.20467234 C203.56005907 497.23341505 205.98393797 498.8494592 208.7224884 500.39015198 C212.89499657 499.44625303 212.89499657 499.44625303 215.7224884 496.64015198 C216.0524884 495.89765198 216.3824884 495.15515198 216.7224884 494.39015198 C218.22259242 492.84433842 219.78153739 491.39325704 221.38264465 489.95265198 C223.8609253 487.06252877 223.84686022 483.69841769 223.83601379 480.01925659 C223.83593984 479.1445402 223.83586588 478.2698238 223.83578968 477.36860085 C223.83062682 476.41060774 223.82546396 475.45261463 223.82014465 474.46559143 C223.81871554 473.44261145 223.81728643 472.41963146 223.81581402 471.36565208 C223.81204017 469.11297191 223.80593542 466.86029476 223.79784203 464.60762596 C223.78466867 460.9137777 223.77758798 457.21995967 223.77200317 453.52609253 C223.76451739 448.8161467 223.75574157 444.10621022 223.74484354 439.39627117 C223.7092946 423.96065425 223.70444453 408.52502341 223.70295715 393.08937073 C223.70285763 392.31224669 223.7027581 391.53512264 223.70265555 390.73444939 C223.69870053 354.27582816 223.77941557 317.81754323 223.95820808 281.35934925 C223.96712955 279.53720925 223.97604007 277.71506919 223.98493958 275.89292908 C223.9893304 274.99432929 223.99372123 274.09572949 223.99824512 273.1698994 C224.02847304 266.81768163 224.0504877 260.46546697 224.06892395 254.11320496 C224.09160367 246.32796019 224.12463103 238.54284611 224.17118996 230.75770599 C224.19487118 226.75398233 224.21377863 222.7503835 224.22010231 218.74659157 C224.22610995 215.06203675 224.24593892 211.37782338 224.27676392 207.69339502 C224.28970921 205.72012779 224.28797561 203.74678124 224.2857666 201.77347279 C224.29830475 200.60151702 224.3108429 199.42956125 224.32376099 198.22209167 C224.32836995 197.20957651 224.33297892 196.19706135 224.33772755 195.15386391 C225.03232846 190.16459124 227.63286127 187.18113666 231.4724884 184.14015198 C235.25914757 180.97073213 238.06165194 177.54002744 240.8865509 173.50343323 C242.7224884 171.39015198 242.7224884 171.39015198 245.46983337 169.61227417 C248.88330702 167.28028523 251.71773092 164.65579806 254.60090637 161.72291565 C255.15463928 161.1678685 255.70837219 160.61282135 256.27888489 160.04095459 C258.09547389 158.21791273 259.90497041 156.38799358 261.7146759 154.55812073 C262.98679582 153.27972111 264.25943847 152.00184147 265.53257751 150.72445679 C268.87758657 147.36617796 272.21698183 144.00237737 275.55476379 140.63691711 C280.88775915 135.26073897 286.22744469 129.89122842 291.5705452 124.52509499 C293.42515013 122.66036234 295.27624762 120.79220141 297.1269989 118.92364502 C302.32366519 113.69016126 307.51451079 108.54033912 313.13499451 103.75601196 C315.23222563 101.95158041 317.16283567 100.0143993 319.0818634 98.02296448 C319.80502747 97.2830426 320.52819153 96.54312073 321.27326965 95.78077698 C322.75871348 94.25047961 324.24039827 92.71652571 325.71858215 91.17921448 C326.79559387 90.08093323 326.79559387 90.08093323 327.8943634 88.96046448 C328.5347052 88.29804749 329.175047 87.63563049 329.83479309 86.95314026 C331.83331882 85.29838577 333.18604455 84.78897718 335.7224884 84.39015198 C338.00432223 88.63707782 339.45952086 92.66489177 340.6599884 97.32765198 C342.11835017 102.59333988 343.52255284 106.95153167 346.7224884 111.39015198 C347.7124884 111.72015198 348.7024884 112.05015198 349.7224884 112.39015198 C355.22765327 104.73079217 353.5920365 96.73948773 352.39045715 87.97608948 C351.76616398 84.62462085 350.80720848 81.61332021 349.7224884 78.39015198 C349.3162384 75.89796448 349.3162384 75.89796448 349.2224884 73.51515198 C349.14514465 72.34339417 349.14514465 72.34339417 349.0662384 71.14796448 C350.80339469 63.847772 357.64466935 58.30342151 363.0271759 53.45265198 C371.11869975 46.01120631 378.93801832 38.32809147 386.6990509 30.54396057 C388.87757849 28.35998666 391.06151987 26.18152595 393.2459259 24.00343323 C394.65770559 22.59099394 396.06917568 21.17824512 397.4803009 19.76515198 C398.12097504 19.12650208 398.76164917 18.48785217 399.42173767 17.82984924 C402.91597734 14.31751129 406.22230845 10.72620526 409.37162781 6.90016174 C412.32828186 3.5951749 415.22981775 1.62010394 419.6131134 0.94483948 C422.7224884 1.39015198 422.7224884 1.39015198 425.1443634 3.70655823 C425.91264465 4.77776917 426.6809259 5.8489801 427.4724884 6.95265198 C427.89658997 7.53691956 428.32069153 8.12118713 428.75764465 8.72315979 C430.10362758 10.59622011 431.41565561 12.48961321 432.7224884 14.39015198 C433.14078918 14.98876038 433.55908997 15.58736877 433.99006653 16.20411682 C450.67611795 40.15604275 463.13659817 65.83678765 472.7224884 93.39015198 C473.00962708 94.20902893 473.29676575 95.02790588 473.59260559 95.87159729 C488.8338884 139.90401265 494.45054969 190.33570094 485.7224884 236.39015198 C485.54556458 237.3414801 485.36864075 238.29280823 485.18635559 239.27296448 C474.4601628 295.44190496 447.1414821 343.93743341 408.90608215 385.92140198 C406.57397264 388.55806247 404.36479904 391.27138763 402.1599884 394.01515198 C398.8558835 398.10074952 395.39296485 401.83550652 391.62483215 405.49171448 C389.08417644 408.02715324 386.77599891 410.73606833 384.43733215 413.45655823 C382.25202856 415.92062492 379.91892504 418.20747853 377.56794071 420.51200199 C375.77485897 422.33685351 374.10497046 424.22029702 372.44134521 426.16320801 C369.01224012 430.10505199 365.42022032 433.83414207 361.72077942 437.52125549 C360.7290271 438.51563629 360.7290271 438.51563629 359.71723938 439.53010559 C357.55611276 441.69559188 355.39139803 443.85744835 353.22639465 446.01905823 C351.70842143 447.53770618 350.19059659 449.05650246 348.6729126 450.57543945 C345.50152533 453.74829573 342.32835017 456.91934998 339.15388489 460.08912659 C335.10124135 464.13607336 331.0531044 468.18749358 327.00630283 472.24028111 C323.87586724 475.37434386 320.74303693 478.50600415 317.60949516 481.63696098 C316.11654874 483.12924409 314.62433434 484.62225995 313.1328907 486.116045 C311.04221288 488.20928487 308.94831736 490.29925461 306.85359192 492.38844299 C306.24815048 492.99590866 305.64270905 493.60337433 305.0189209 494.22924805 C301.30903386 497.9211437 297.47546058 501.41302718 293.49873257 504.81628323 C290.90234802 507.11685011 288.65351523 509.60925873 286.3474884 512.20265198 C280.51571052 518.68935184 274.35904725 524.81411075 268.14045715 530.92921448 C254.81717351 544.48926084 246.06454864 562.54598912 243.7224884 581.39015198 C243.60002747 582.31312073 243.47756653 583.23608948 243.35139465 584.18702698 C242.52265397 592.08564186 242.89801997 599.82208705 243.30671692 607.72877502 C245.22896444 645.48377008 245.22896444 645.48377008 234.7224884 659.39015198 C229.99190859 664.47521968 223.7132158 667.94028534 216.75886536 668.56715393 C198.80127474 669.10444744 198.80127474 669.10444744 191.7224884 664.39015198 C191.01866028 663.96605042 190.31483215 663.54194885 189.5896759 663.10499573 C182.33185862 658.29769609 179.16159106 651.55966163 176.7224884 643.39015198 C176.40364075 640.4912262 176.40364075 640.4912262 176.3084259 637.44483948 C176.26983459 636.29918518 176.23124329 635.15353088 176.19148254 633.97315979 C176.16046448 632.74951721 176.12944641 631.52587463 176.0974884 630.26515198 C176.05809143 628.9899469 176.01869446 627.71474182 175.97810364 626.40089417 C175.72851348 617.47708592 175.72087271 608.5674993 175.7849884 599.64015198 C175.94180469 564.67735681 163.57275525 542.36093243 139.24552917 517.79966736 C137.19197036 515.74253199 135.13209681 513.69180882 133.0716095 511.64161682 C131.92872049 510.500652 130.78606264 509.35945558 129.64361572 508.2180481 C127.20283318 505.78040194 124.76051238 503.34431182 122.31695175 500.90945053 C118.44694599 497.05308084 114.58085912 493.19279794 110.71531677 489.33195496 C102.51234909 481.14003772 94.3051418 472.95237409 86.0974884 464.76515198 C77.22683897 455.91657069 68.35694533 447.06723935 59.4919306 438.21301234 C55.65504962 434.38108973 51.81574987 430.55161273 47.97452903 426.72404075 C45.58095582 424.33796424 43.18948985 421.9497841 40.79857063 419.56104851 C39.6961798 418.4605181 38.59293076 417.36084653 37.48872566 416.26213646 C32.20132376 411.00020536 26.97780921 405.72552177 22.1385746 400.04215431 C20.29300853 397.88912192 18.35007444 395.83785867 16.40119934 393.77882385 C10.28241532 387.29617503 4.69624927 380.52644143 -0.70378113 373.43946838 C-2.43710009 371.18233538 -4.19829143 368.94853493 -5.96110535 366.71437073 C-34.45401185 330.33984783 -55.86305891 289.99557098 -65.0900116 244.51515198 C-65.28490173 243.55455872 -65.47979187 242.59396545 -65.68058777 241.60426331 C-68.80774533 225.26834501 -69.68404068 209.24213021 -69.6525116 192.64015198 C-69.65230011 191.60890198 -69.65208862 190.57765198 -69.65187073 189.51515198 C-69.61709028 172.46712691 -68.54390994 156.15642013 -65.2775116 139.39015198 C-65.09027527 138.38774475 -64.90303894 137.38533752 -64.71012878 136.35255432 C-55.41306448 87.32218152 -35.49309246 43.92220361 -5.2775116 4.39015198 C-4.8031366 3.62187073 -4.3287616 2.85358948 -3.8400116 2.06202698 C-2.2775116 0.39015198 -2.2775116 0.39015198 0 0 Z M8.7224884 87.39015198 C-14.89379149 112.01376135 -17.01427372 159.90900927 -16.4650116 191.76905823 C-15.26244493 234.40756266 -8.07930994 287.03971953 22.7224884 319.39015198 C25.91601075 322.28054586 29.19206899 324.92421911 32.7224884 327.39015198 C33.7124884 326.73015198 34.7024884 326.07015198 35.7224884 325.39015198 C36.05512205 322.57190674 36.18945385 319.96728481 36.20005798 317.1421814 C36.22211959 315.84701451 36.22211959 315.84701451 36.24462688 314.52568263 C36.28993213 311.61437842 36.31323581 308.70332321 36.33625793 305.79176331 C36.36318905 303.71057367 36.39112112 301.62939679 36.41998291 299.54823303 C36.50782369 292.68969806 36.56070293 285.8311214 36.6053009 278.97218323 C36.61292497 277.80350511 36.62054904 276.634827 36.62840414 275.4307344 C36.6970994 264.39389487 36.74900686 253.35705117 36.76941109 242.32001209 C36.79693399 228.23325643 36.89958172 214.15151325 37.10521805 200.06620389 C37.24347806 190.14880585 37.29242213 180.23326726 37.27756774 170.31493205 C37.27115391 164.40010721 37.30268309 158.49149759 37.43117142 152.57793617 C39.02853292 123.6109561 39.02853292 123.6109561 26.46095085 98.83493328 C18.6549691 90.80034783 18.6549691 90.80034783 8.7224884 87.39015198 Z M400.4256134 93.67530823 C396.15818463 97.96123741 392.43451135 102.62374119 388.7224884 107.39015198 C387.99803528 108.22030823 387.27358215 109.05046448 386.5271759 109.90577698 C383.03397764 114.71459536 383.58128879 120.18313857 383.60223389 125.9258728 C383.60137946 126.78360737 383.60052504 127.64134194 383.59964472 128.52506846 C383.59799821 131.39784219 383.60349775 134.27055746 383.60896301 137.14332581 C383.60924509 139.20315042 383.60908675 141.26297513 383.60852051 143.32279968 C383.60823333 148.91530924 383.61411722 154.5077974 383.62109447 160.10030198 C383.62734124 165.94461347 383.62793285 171.78892543 383.62911987 177.63323975 C383.63222928 188.70056775 383.64043742 199.76788589 383.65046936 210.83520955 C383.66164261 223.43484262 383.66714401 236.03447616 383.6721648 248.63411295 C383.68262034 274.5527981 383.70021224 300.47147449 383.7224884 326.39015198 C384.3824884 326.72015198 385.0424884 327.05015198 385.7224884 327.39015198 C404.55166442 317.97556397 415.08171229 294.63104426 421.66828918 275.66700745 C438.93028219 223.06806172 445.24939972 153.63289162 419.6599884 102.64015198 C418.38547169 100.1990571 417.06406558 97.79612096 415.7224884 95.39015198 C414.97225403 94.0211676 414.97225403 94.0211676 414.2068634 92.62452698 C412.85303892 90.20287339 412.85303892 90.20287339 410.7224884 87.39015198 C405.97789355 87.39015198 403.79588048 90.55633299 400.4256134 93.67530823 Z M96.7224884 173.39015198 C95.33426343 174.55053414 95.33426343 174.55053414 95.61226463 177.74815464 C95.61413098 179.29050236 95.62171486 180.83284853 95.63346863 182.37515259 C95.63599219 183.22226396 95.63851575 184.06937532 95.64111578 184.94215673 C95.65090029 187.80385008 95.66792682 190.66545571 95.68489075 193.52711487 C95.69339189 195.57023959 95.70146398 197.61336614 95.70913696 199.65649414 C95.73141285 205.22760825 95.76007969 210.7986731 95.79009199 216.36975026 C95.8207066 222.20258144 95.84636716 228.03543473 95.87278748 233.86828613 C95.91805727 243.6816658 95.96752215 253.49501787 96.0193634 263.30836487 C96.07908866 274.62505093 96.13195746 285.9417532 96.18113172 297.25848967 C96.22867532 308.15662635 96.28146741 319.0547319 96.33649063 329.95283318 C96.3597496 334.58118004 96.38114656 339.20952984 96.40099716 343.83789253 C96.42468287 349.31009569 96.45298487 354.78225692 96.4846859 360.25441933 C96.49553785 362.25210022 96.50485907 364.24979017 96.51244926 366.24748611 C96.53601463 372.29635228 96.60333548 378.34242602 96.7224884 384.39015198 C96.73388367 385.17560544 96.74527894 385.9610589 96.75701952 386.77031398 C96.7971078 388.99051932 96.86855276 391.20728772 96.95115662 393.42626953 C96.98904108 394.66886756 97.02692554 395.91146559 97.06595802 397.1917181 C97.87191492 401.11811653 99.19671247 402.41683009 102.2849884 404.89015198 C104.09456071 406.06135454 105.90700324 407.22813607 107.7224884 408.39015198 C109.74938258 410.27043536 111.63979894 412.23395593 113.5428009 414.23780823 C115.44623595 416.11736505 117.39261061 417.86310695 119.41389465 419.61280823 C124.71653901 424.21305464 129.75538533 429.08354007 134.80647278 433.95655823 C135.52770325 434.64362854 136.24893372 435.33069885 136.99201965 436.03858948 C137.63759827 436.65911194 138.28317688 437.2796344 138.94831848 437.91896057 C140.76377431 439.60510144 140.76377431 439.60510144 143.7224884 440.39015198 C145.39033725 437.05445429 144.86046897 433.3075083 144.85188293 429.63990784 C144.85360693 428.7235512 144.85533092 427.80719456 144.85710716 426.86306953 C144.86148801 423.77702741 144.85848053 420.69103871 144.8553009 417.60499573 C144.85640235 415.40434755 144.85783402 413.20369952 144.85957336 411.00305176 C144.862508 405.02407066 144.85812493 399.04511662 144.85146332 393.06613922 C144.84750112 389.33960979 144.84497948 385.61308177 144.8427887 381.8865509 C144.81803304 345.16907917 144.674705 308.45244751 144.3746109 271.73617935 C144.34746786 268.26252297 144.32384994 264.78885841 144.30116272 261.31517029 C144.26498121 255.86735867 144.21881427 250.41972379 144.16455078 244.97206306 C144.14609253 242.97643843 144.13087 240.98078086 144.11911011 238.98510551 C144.10236624 236.26821513 144.07347161 233.55172187 144.04133606 230.8349762 C144.0391765 230.04526397 144.03701694 229.25555174 144.03479195 228.44190884 C143.91873796 220.856482 141.87812104 217.08349356 136.5584259 211.89796448 C136.04752411 211.38893585 135.53662231 210.87990723 135.01023865 210.35545349 C133.92937601 209.28129419 132.84493086 208.21072922 131.75715637 207.14356995 C130.11681652 205.53411616 128.48713058 203.91449764 126.85920715 202.29249573 C121.82119014 197.29256489 116.72584402 192.40007142 111.3318634 187.78126526 C109.30623674 186.03035192 107.40972728 184.17586665 105.5349884 182.26515198 C104.88143372 181.60257385 104.22787903 180.93999573 103.55451965 180.25733948 C102.94994934 179.6411676 102.34537903 179.02499573 101.7224884 178.39015198 C100.72369832 177.38894352 99.72389784 176.38874055 98.7224884 175.39015198 C98.0624884 174.73015198 97.4024884 174.07015198 96.7224884 173.39015198 Z M320.7224884 174.39015198 C319.71652543 175.34222408 318.71787277 176.30202544 317.7224884 177.26515198 C317.1656134 177.79882385 316.6087384 178.33249573 316.0349884 178.88233948 C314.50363318 180.30840186 314.50363318 180.30840186 314.7224884 182.39015198 C313.83594322 182.7901944 313.83594322 182.7901944 312.93148804 183.19831848 C310.67892347 184.4136568 309.18974572 185.66339442 307.37849426 187.45948792 C306.7478154 188.08063477 306.11713654 188.70178162 305.46734619 189.3417511 C304.79744156 190.01256714 304.12753693 190.68338318 303.43733215 191.37452698 C302.39108421 192.41434723 302.39108421 192.41434723 301.32369995 193.47517395 C299.85113529 194.94200093 298.38117735 196.41144884 296.91365051 197.88331604 C294.67344527 200.12667616 292.42027148 202.35640458 290.16584778 204.58546448 C288.73469836 206.01434027 287.30433358 207.44400247 285.87483215 208.87452698 C284.86693886 209.86860565 284.86693886 209.86860565 283.83868408 210.88276672 C283.21115738 211.51652222 282.58363068 212.15027771 281.93708801 212.80323792 C281.3873381 213.3523584 280.8375882 213.90147888 280.2711792 214.46723938 C275.88764826 219.90999587 275.29049988 224.60412141 275.36172485 231.31187439 C275.35916158 232.19904825 275.3565983 233.08622211 275.35395736 234.00028002 C275.34902414 236.96684923 275.36550489 239.93290716 275.38191223 242.89942932 C275.3827586 245.02836597 275.38228317 247.15730349 275.38058472 249.28623962 C275.37972374 255.06263633 275.39736635 260.83884627 275.41830659 266.61519957 C275.43705611 272.65301791 275.43882247 278.6908405 275.44238281 284.72868347 C275.45170833 296.16079921 275.47632904 307.59282891 275.50643128 319.02490675 C275.53995946 332.04050563 275.55645733 345.05610861 275.57151759 358.07173991 C275.60287809 384.84459164 275.65564852 411.61736699 275.7224884 438.39015198 C279.30181995 438.39015198 279.67331388 437.85909635 282.2224884 435.51515198 C282.92760559 434.87577698 283.63272278 434.23640198 284.35920715 433.57765198 C285.13908997 432.85577698 285.91897278 432.13390198 286.7224884 431.39015198 C292.0796747 426.46251314 297.42146277 421.5758014 303.0974884 417.01515198 C307.45525379 413.48233928 311.68742608 409.83944698 315.8474884 406.07765198 C316.41644836 405.57378967 316.98540833 405.06992737 317.5716095 404.55079651 C320.44760407 401.91762069 322.07878517 400.23321059 322.7224884 396.39015198 C322.81500409 393.42506371 322.8529242 390.48400907 322.84274292 387.51911926 C322.84359734 386.61323649 322.84445177 385.70735372 322.84533209 384.77401996 C322.84698191 381.732307 322.84147361 378.69064894 322.83601379 375.64894104 C322.83573179 373.47103883 322.83588992 371.29313653 322.8364563 369.11523438 C322.83674375 363.19623023 322.83085536 357.27724625 322.82388234 351.3582468 C322.81764021 345.17493351 322.81704432 338.99161979 322.81585693 332.80830383 C322.81274616 321.09637219 322.80453618 309.38444985 322.79450744 297.67252231 C322.78325833 284.34015716 322.77783387 271.00779197 322.77281201 257.67542315 C322.76235337 230.24699426 322.74475882 202.81857364 322.7224884 175.39015198 C322.0624884 175.06015198 321.4024884 174.73015198 320.7224884 174.39015198 Z " fill="#0AAE4C" transform="translate(69.27751159667969,278.60984802246094)"/>
<path d="M0 0 C3.97880503 0.00152976 7.95760778 0.00143258 11.93641281 0.00050974 C12.60472844 0.00035651 13.27304407 0.00020327 13.96161169 0.0000454 C15.32086667 -0.00027445 16.68012164 -0.00059867 18.03937662 -0.00092719 C30.67345559 -0.00375326 43.30752721 -0.00054067 55.94160497 0.00487317 C66.69371296 0.00933856 77.44581014 0.00856181 88.19791794 0.00395441 C100.79841316 -0.00144281 113.39890201 -0.00347884 125.99939823 -0.00043333 C127.35260963 -0.0001149 128.70582104 0.00019947 130.05903244 0.00050974 C130.72418977 0.00066401 131.3893471 0.00081829 132.07466072 0.00097724 C136.67774965 0.0018271 141.28083426 0.00036201 145.88392258 -0.00196981 C193.08430945 -0.02234968 193.08430945 -0.02234968 213.61881638 0.51762629 C214.90949524 0.54796898 216.2001741 0.57831167 217.52996445 0.60957384 C241.02206966 1.35621068 263.0966257 7.29477525 280.99772263 23.1343255 C281.80338669 23.82139582 282.60905075 24.50846613 283.43912888 25.21635675 C303.61775352 42.80718831 318.77763856 66.93829575 320.99772263 94.1343255 C321.64338874 106.49050035 321.27345717 118.14540231 317.99772263 130.1343255 C317.66901169 131.340888 317.34030075 132.5474505 317.00162888 133.7905755 C312.88533308 147.35013811 306.3998581 160.45941186 296.99772263 171.1343255 C296.345457 171.928388 295.69319138 172.7224505 295.02116013 173.5405755 C286.82928522 183.19209357 276.63429334 190.37309451 265.99772263 197.1343255 C267.54459763 198.093388 267.54459763 198.093388 269.12272263 199.0718255 C269.85491013 199.53330988 270.58709763 199.99479425 271.34147263 200.470263 C273.26954886 201.67814606 275.2085642 202.86862299 277.15397263 204.048388 C296.67557213 216.03886887 310.5272636 230.758204 320.99772263 251.1343255 C321.50303513 252.1037005 322.00834763 253.0730755 322.52897263 254.0718255 C326.12555917 261.44044185 328.18635726 269.17099576 329.99772263 277.1343255 C330.33996872 278.63866144 330.33996872 278.63866144 330.68912888 280.173388 C336.35924029 310.22894364 329.43009707 342.24505693 312.52970505 367.57304621 C304.63380687 378.89603293 294.80338019 388.91781079 282.99772263 396.1343255 C281.44698044 397.11659113 281.44698044 397.11659113 279.86491013 398.1187005 C271.03598802 403.54873686 261.87560482 407.08047643 251.99772263 410.1343255 C251.0051445 410.45272394 250.01256638 410.77112238 248.98991013 411.09916925 C230.4687478 416.4022371 210.22478917 415.43118515 191.17154086 415.39577484 C187.50103532 415.39118026 183.83054744 415.39826764 180.16004562 415.40373468 C173.00469181 415.41255236 165.84938033 415.41074244 158.69402497 415.4049094 C152.88077 415.40036854 147.06752679 415.39979039 141.25427055 415.40195704 C140.422887 415.4022635 139.59150345 415.40256997 138.73492645 415.40288572 C137.04552459 415.40352523 135.35612273 415.40417366 133.66672087 415.4048309 C117.89230793 415.41051022 102.11791837 415.40401103 86.34350926 415.39323017 C72.81132463 415.38426864 59.27917425 415.38587267 45.7469902 415.39506769 C29.99762743 415.40576437 14.24828497 415.40999064 -1.50108093 415.40384316 C-3.17861839 415.4032061 -4.85615585 415.40257736 -6.53369331 415.40195704 C-7.35893291 415.40164848 -8.18417252 415.40133993 -9.03441938 415.40102203 C-14.84870285 415.39929538 -20.6629734 415.40220896 -26.47725487 415.40691614 C-33.54990514 415.41251701 -40.622511 415.41102411 -47.69515616 415.40035465 C-51.30282225 415.39509157 -54.91041419 415.39305241 -58.51807976 415.39965296 C-62.42391095 415.40669143 -66.32962013 415.39829986 -70.23544693 415.38829279 C-71.95324627 415.39498495 -71.95324627 415.39498495 -73.70574862 415.40181231 C-74.7492642 415.39659682 -75.79277979 415.39138133 -76.86791706 415.38600779 C-77.76938121 415.38568308 -78.67084536 415.38535838 -79.5996266 415.38502383 C-82.24732245 415.10875692 -83.8280111 414.67522324 -86.00227737 413.1343255 C-87.41603557 409.84648286 -87.12761773 406.28016106 -87.12811852 402.74892473 C-87.12957196 402.10714012 -87.1310254 401.4653555 -87.13252288 400.80412287 C-87.13618412 398.64474739 -87.13269577 396.48544245 -87.12926102 394.32606745 C-87.13041283 392.76547113 -87.13200076 391.20487508 -87.13398826 389.6442796 C-87.1381743 385.34810444 -87.13609403 381.05195142 -87.13300204 376.75577617 C-87.13074482 372.1240842 -87.13422946 367.4923961 -87.13698196 362.8607049 C-87.14143748 353.77792454 -87.14046348 344.69515242 -87.13756932 335.61237173 C-87.13531139 328.21947763 -87.13500448 320.82658585 -87.13609314 313.4336915 C-87.13624637 312.38155226 -87.13639961 311.32941303 -87.13655748 310.24539078 C-87.13687722 308.10773193 -87.13720143 305.97007308 -87.13753007 303.83241422 C-87.14038501 283.76108799 -87.13709922 263.68976631 -87.13172971 243.61844082 C-87.12727595 226.44030243 -87.12802574 209.2621708 -87.13264847 192.08403254 C-87.13801873 172.11886519 -87.14009527 152.15370187 -87.1370362 132.1885339 C-87.13671768 130.05199138 -87.13640331 127.91544886 -87.13609314 125.77890635 C-87.13593886 124.72785469 -87.13578459 123.67680303 -87.13562564 122.59390133 C-87.13476675 115.23122938 -87.13621007 107.86856001 -87.13857269 100.50588846 C-87.1413988 91.50073851 -87.14057444 82.49559726 -87.13529195 73.49044828 C-87.13269025 68.9060414 -87.13158859 64.32164894 -87.1349411 59.73724222 C-87.14811142 40.17696727 -86.98507969 20.67584515 -86.00227737 1.1343255 C-57.33835637 -0.01675802 -28.68295457 -0.01453013 0 0 Z M4.99772263 71.1343255 C4.01638303 75.64379342 3.84979673 79.96477454 3.85245895 84.56474543 C3.84910034 85.40107004 3.84574173 86.23739466 3.84228134 87.09906244 C3.83280713 89.8543216 3.83083046 92.60951984 3.82975388 95.36479425 C3.82654047 97.28099833 3.82317634 99.19720215 3.81966782 101.1134057 C3.81368657 105.12388411 3.81182705 109.134341 3.81241989 113.14482355 C3.81252183 118.29330578 3.79883239 123.44165108 3.78164768 128.59010077 C3.77055603 132.54394404 3.76849975 136.4977538 3.76902962 140.45161104 C3.76784665 142.35069297 3.76340722 144.24977569 3.75569725 146.14884233 C3.74594804 148.79669074 3.74875441 151.44423636 3.7548027 154.09208918 C3.7491832 154.88120691 3.74356369 155.67032465 3.7377739 156.48335505 C3.60423198 160.77185959 3.60423198 160.77185959 5.99772263 164.1343255 C9.16590587 164.44637598 9.16590587 164.44637598 12.97079086 164.40175104 C13.69695565 164.40628215 14.42312044 164.41081327 15.17129022 164.41548169 C17.61764847 164.42819541 20.06378606 164.42650078 22.5101738 164.42485285 C24.25951043 164.43083436 26.00884441 164.43763903 27.7581749 164.44520807 C32.52338848 164.46292849 37.2885303 164.4675664 42.05377364 164.46883965 C45.03457688 164.47026009 48.01536181 164.47452798 50.99616051 164.47983408 C61.40709339 164.4983647 71.81797497 164.5065022 82.2289238 164.50493097 C91.91038733 164.50373351 101.59162648 164.52475002 111.27303332 164.5564183 C119.59596745 164.58266548 127.9188288 164.59329452 136.24180394 164.59202015 C141.20716139 164.59151236 146.17232019 164.59709219 151.13763618 164.61837626 C155.82035907 164.6378973 160.50269701 164.63778936 165.18543434 164.62334299 C166.89328963 164.62126982 168.60116986 164.62586545 170.30898285 164.63806391 C187.05456317 164.74980434 203.26187246 162.25455089 216.24772263 150.6343255 C224.47982951 141.77549443 228.93185267 129.98285559 229.02116013 117.985888 C228.30771639 102.17747683 222.05562313 91.12076946 210.99772263 80.1343255 C198.55734824 69.55006382 182.62116205 69.98296583 167.14933395 70.00493097 C165.54365118 70.00357435 163.93796871 70.00179294 162.33228683 69.99962091 C157.98697715 69.99507589 153.64169131 69.99682457 149.29638124 70 C144.73407444 70.00254094 140.17176962 70.00018104 135.60946274 69.99861383 C127.94387574 69.99679628 120.27829839 69.99918665 112.61271286 70.00395441 C103.7775456 70.00938652 94.94240146 70.00764036 86.10723478 70.00212801 C78.50013718 69.99757348 70.8930465 69.99695803 63.28594798 69.99956667 C58.75230099 70.00111786 54.21866482 70.0013554 49.68501854 69.99803019 C45.41600604 69.99511772 41.14702297 69.99718849 36.87801361 70.00292444 C35.32089982 70.0042345 33.76378351 70.00388819 32.20667076 70.00166178 C23.09421414 69.98984517 14.07489407 70.27545593 4.99772263 71.1343255 Z M4.99772263 235.1343255 C4.07206857 237.91128768 3.8721595 239.55867832 3.87073898 242.42314386 C3.86791916 243.2980044 3.86509933 244.17286493 3.86219406 245.07423639 C3.86421829 246.03121424 3.86624252 246.98819208 3.86832809 247.97416925 C3.86657578 248.98415979 3.86482346 249.99415033 3.86301804 251.03474665 C3.85860907 254.38045697 3.86153418 257.72611463 3.86491013 261.0718255 C3.86423681 263.39205673 3.86326656 265.71228788 3.86201096 268.03251886 C3.86053528 272.89816696 3.86268439 277.76379672 3.86735153 282.62944269 C3.87304873 288.87418309 3.86976904 295.11888051 3.86377907 301.36361933 C3.86016997 306.15560974 3.86131366 310.94758992 3.86390686 315.73958063 C3.86457516 318.04253885 3.86375107 320.345498 3.86142731 322.64845514 C3.8588951 325.86382247 3.86274949 329.07911966 3.86832809 332.29448175 C3.86630386 333.2514596 3.86427963 334.20843744 3.86219406 335.19441462 C3.86501389 336.06927515 3.86783371 336.94413568 3.87073898 337.84550714 C3.87111601 338.60577707 3.87149303 339.366047 3.87188148 340.14935541 C3.9262417 342.34583441 3.9262417 342.34583441 4.99772263 345.1343255 C25.73989674 345.28902193 46.4821093 345.43702477 67.22438622 345.5772891 C76.85767839 345.64258398 86.49094688 345.70998209 96.12418747 345.78251886 C104.5309106 345.84581462 112.93765149 345.90497336 121.344437 345.95938104 C125.78629324 345.98826693 130.2281154 346.01907679 134.66992188 346.05485964 C182.27099218 349.18507531 182.27099218 349.18507531 224.58366013 332.6187005 C236.693022 320.15663877 243.33498227 305.46704721 243.37833786 287.99663019 C243.04783334 272.29849601 235.44026979 259.16012953 224.43522263 248.3218255 C214.2320493 239.90459576 204.8076358 235.75102843 191.62809372 234.92607355 C190.50799093 234.84883145 189.38788815 234.77158936 188.23384285 234.69200659 C173.611694 233.78843833 158.97010201 233.85986308 144.32688951 233.89860606 C140.19905199 233.90758042 136.07121612 233.90562549 131.94337082 233.9052453 C125.02673538 233.9061732 118.1101446 233.91473948 111.19352341 233.92851496 C103.25561521 233.94426843 95.31775557 233.94951119 87.37983286 233.9487794 C78.83251889 233.94809853 70.285223 233.95506378 61.73791456 233.96422601 C59.31441139 233.96633274 56.89091123 233.96706375 54.46740723 233.96746492 C37.95541871 233.97269286 21.48121734 234.02740041 4.99772263 235.1343255 Z " fill="#332B2B" transform="translate(1229.0022773742676,278.865674495697)"/>
<path d="M0 0 C2.66938393 -0.00135721 5.33876509 -0.00310327 8.00814819 -0.00531006 C14.47237452 -0.00972919 20.93658917 -0.00880839 27.40081593 -0.00589742 C32.66246763 -0.00362735 37.92411608 -0.00333777 43.18576813 -0.00442123 C43.93827481 -0.00457447 44.69078149 -0.0047277 45.46609141 -0.00488558 C46.99545024 -0.00520535 48.52480907 -0.00552956 50.0541679 -0.00585817 C64.35686829 -0.00870187 78.65956225 -0.0054438 92.96226159 -0.0000578 C105.19261772 0.00440557 117.42296435 0.003636 129.65332031 -0.00097656 C143.90306798 -0.00634831 158.15281002 -0.00842346 172.40255857 -0.0053643 C173.92711719 -0.0050458 175.45167581 -0.00473143 176.97623444 -0.00442123 C178.10098269 -0.00418982 178.10098269 -0.00418982 179.24845313 -0.00395373 C184.49210114 -0.00309608 189.73574555 -0.00453521 194.97939301 -0.00690079 C201.38671294 -0.00972814 207.79402065 -0.00889954 214.20133922 -0.00362004 C217.46056485 -0.00102161 220.71976641 -0.00046472 223.97899246 -0.0032692 C262.03164275 -0.03296882 262.03164275 -0.03296882 278.41113281 2.44189453 C279.28761475 2.57233154 280.16409668 2.70276855 281.06713867 2.8371582 C287.51653856 3.86217675 293.41020934 5.35372442 299.34863281 8.12939453 C300.29351563 8.54962891 301.23839844 8.96986328 302.21191406 9.40283203 C314.27205051 15.06530855 324.859765 22.80412789 334.34863281 32.12939453 C335.37730469 33.13873047 335.37730469 33.13873047 336.42675781 34.16845703 C349.00279171 47.38814621 356.28814877 64.5963367 360.34863281 82.12939453 C360.57679688 83.05880859 360.80496094 83.98822266 361.04003906 84.94580078 C366.25463845 109.99775729 361.22985641 137.20514489 348.34863281 159.12939453 C345.52024461 163.27631836 342.49918171 167.22315842 339.34863281 171.12939453 C338.77242187 171.86029297 338.19621094 172.59119141 337.60253906 173.34423828 C329.80032587 182.79296169 319.29354285 190.65693951 308.34863281 196.12939453 C308.34863281 196.78939453 308.34863281 197.44939453 308.34863281 198.12939453 C309.15945313 198.54189453 309.97027344 198.95439453 310.80566406 199.37939453 C337.22512749 213.15811352 358.36462993 234.75224348 368.34863281 263.12939453 C378.73759837 296.24777041 376.19184429 326.89738225 360.13378906 358.02783203 C344.21539882 385.68472886 320.17574131 403.06371836 289.61425781 411.32080078 C275.96398859 414.70071194 262.24058314 415.28400097 248.22016907 415.25637817 C246.35555197 415.25871816 246.35555197 415.25871816 244.45326585 415.26110542 C241.04739344 415.26437361 237.6415772 415.26323872 234.23570836 415.2601192 C230.54601747 415.25783807 226.85633118 415.26135793 223.16664124 415.26409912 C215.95920465 415.26852552 208.75177852 415.26759476 201.54434154 415.26468648 C195.68896046 415.26242203 189.8335823 415.26212443 183.97820091 415.2632103 C182.72510681 415.26344015 182.72510681 415.26344015 181.44669768 415.26367464 C179.74940235 415.26399438 178.05210702 415.26431859 176.35481169 415.26464723 C160.47602723 415.26749234 144.59724856 415.26422921 128.71846505 415.25884686 C115.09038332 415.25437065 101.4623101 415.25516334 87.83422852 415.25976562 C71.99263961 415.26511294 56.15105575 415.26722724 40.30946606 415.26415336 C38.62200781 415.26383482 36.93454955 415.26352045 35.24709129 415.2632103 C34.41688196 415.26305602 33.58667262 415.26290175 32.73130542 415.2627428 C26.87656172 415.26187879 21.02182122 415.26333784 15.16707802 415.26568985 C8.04227299 415.26848937 0.91747899 415.26774597 -6.20732477 415.26240911 C-9.84315331 415.25977556 -13.47896345 415.25876133 -17.11479187 415.26205826 C-21.04977957 415.2655727 -24.98473691 415.26138548 -28.91972351 415.25637817 C-30.0765017 415.2586089 -31.23327988 415.26083962 -32.42511195 415.26313794 C-33.99909919 415.25922632 -33.99909919 415.25922632 -35.60488415 415.25523567 C-36.96789836 415.25499214 -36.96789836 415.25499214 -38.35844821 415.2547437 C-40.65136719 415.12939453 -40.65136719 415.12939453 -43.65136719 414.12939453 C-45.10094083 411.23024725 -44.7754036 408.72073961 -44.77441502 405.48017693 C-44.77556886 404.78563603 -44.7767227 404.09109513 -44.77791151 403.37550753 C-44.78057944 401.02488149 -44.77605457 398.67432258 -44.7716217 396.32369995 C-44.77205737 394.63080553 -44.77293219 392.93791117 -44.77421087 391.24501717 C-44.77645674 386.57488206 -44.77243328 381.9047697 -44.76743281 377.2346375 C-44.76312982 372.20531414 -44.76457462 367.17599216 -44.76533508 362.14666748 C-44.76586041 353.42697722 -44.76271266 344.70729443 -44.75709724 335.98760605 C-44.74898348 323.38027077 -44.74636715 310.77293911 -44.74510925 298.16560151 C-44.74291854 277.71293802 -44.73625792 257.26027851 -44.72680664 236.80761719 C-44.71763303 216.93522156 -44.71055195 197.06282701 -44.70629883 177.19042969 C-44.7060361 175.96628695 -44.70577338 174.74214421 -44.7055027 173.48090623 C-44.7041977 167.33997829 -44.70293398 161.19905035 -44.70169079 155.0581224 C-44.69131757 104.08187702 -44.67369873 53.10563597 -44.65136719 2.12939453 C-33.30972612 -3.541426 -12.33119309 -0.01057425 0 0 Z M46.34863281 71.12939453 C45.09007845 75.35559921 45.20065541 79.66597951 45.20336914 84.03735352 C45.20001053 84.81848511 45.19665192 85.5996167 45.19319153 86.40441895 C45.18371817 88.97812504 45.18174035 91.55176585 45.18066406 94.12548828 C45.17744937 95.92000861 45.17408514 97.71452868 45.170578 99.50904846 C45.16459607 103.26735034 45.16273718 107.02562925 45.16333008 110.78393555 C45.16343174 115.59348498 45.14977131 120.40288692 45.13255787 125.21240139 C45.12142656 128.91763482 45.11941121 132.62283269 45.1199398 136.32808113 C45.11876171 138.10104952 45.11434954 139.87401888 45.10660744 141.64697075 C45.09678313 144.12876537 45.09969499 146.61024098 45.10571289 149.09204102 C45.10009338 149.82002396 45.09447388 150.5480069 45.08868408 151.29804993 C45.12043042 158.23689577 45.12043042 158.23689577 48.34863281 164.12939453 C50.52603169 164.28988313 52.70870784 164.37872491 54.89111328 164.44140625 C55.9352709 164.4721417 55.9352709 164.4721417 57.00052261 164.50349808 C59.36383123 164.57008686 61.72724487 164.6277933 64.09082031 164.68408203 C65.3345875 164.71548594 65.3345875 164.71548594 66.60348129 164.74752426 C88.57469308 165.29154168 110.549273 165.28157571 132.52587891 165.25976562 C137.16130862 165.25520127 141.79669919 165.25521024 146.43212891 165.25976562 C178.52597134 165.302045 178.52597134 165.302045 210.61593246 164.85738754 C212.10650019 164.82590944 213.59716398 164.79861512 215.08789444 164.77612686 C232.42294988 164.49802201 246.262648 160.73560987 259.05566406 148.61376953 C267.94012873 138.98767153 272.04933583 128.54396239 271.69628906 115.49658203 C270.40507513 102.99066731 264.53918427 90.79011376 255.34863281 82.12939453 C240.71150932 70.45367911 225.60926457 69.8215318 207.65649414 69.88647461 C205.91400074 69.88539935 204.1715077 69.88345705 202.42901611 69.88072205 C197.73761649 69.87591348 193.04631335 69.88347621 188.35492539 69.89367509 C183.43516046 69.90250883 178.51539808 69.9006972 173.59562683 69.90031433 C165.3488098 69.90124776 157.10202981 69.90989328 148.85522461 69.92358398 C139.31479842 69.93936346 129.77441257 69.94457995 120.23397428 69.94384843 C110.06671274 69.94317413 99.89946677 69.95010219 89.73220992 69.95929503 C86.8022803 69.96142824 83.87235319 69.96213643 80.94242287 69.96253395 C76.35163004 69.9635355 71.76087131 69.96961662 67.17008972 69.97970009 C65.48257341 69.98262919 63.79505317 69.98384963 62.10753441 69.98327255 C59.81207551 69.98278444 57.51671319 69.9884117 55.2212677 69.99568176 C53.93473706 69.99735761 52.64820642 69.99903345 51.32269001 70.00076008 C48.42006369 69.92361822 48.42006369 69.92361822 46.34863281 71.12939453 Z M45.34863281 237.12939453 C45.25324091 238.50815479 45.22674659 239.89176369 45.2283783 241.27381897 C45.22700363 242.16709396 45.22562897 243.06036896 45.22421265 243.98071289 C45.22780792 244.9682959 45.2314032 245.95587891 45.23510742 246.97338867 C45.2349614 248.00741318 45.23481537 249.04143768 45.23466492 250.10679626 C45.23536454 253.54273539 45.24315923 256.97862106 45.25097656 260.41455078 C45.25284057 262.78966746 45.25426455 265.16478453 45.25526428 267.53990173 C45.25909085 273.80515598 45.26892231 280.0703872 45.27996826 286.33563232 C45.29017941 292.72326343 45.29476127 299.11089825 45.29980469 305.49853516 C45.31054445 318.04216479 45.32743154 330.58577844 45.34863281 343.12939453 C49.58013746 345.17189599 53.0542986 345.38067609 57.72715759 345.38336182 C58.46067477 345.3864818 59.19419195 345.38960178 59.94993693 345.39281631 C62.40314889 345.40078099 64.85611244 345.39447843 67.30932617 345.38818359 C69.07057846 345.39089435 70.83182961 345.39445575 72.59307861 345.39880371 C77.37665608 345.40792595 82.16014731 345.40438252 86.9437263 345.39804554 C91.95935849 345.39297756 96.97498336 345.39767988 101.99061584 345.40081787 C110.4232007 345.4044582 118.85575054 345.3996598 127.28833008 345.39013672 C137.01014179 345.37928379 146.7318694 345.38275441 156.45367903 345.39378953 C164.81572018 345.4028985 173.17773616 345.40412915 181.53978068 345.39891219 C186.5267932 345.39580818 191.51376637 345.39533907 196.50077629 345.40198517 C201.19986729 345.40780948 205.89885133 345.40366972 210.59793091 345.39219666 C212.31265143 345.38957567 214.02738111 345.3902707 215.74209785 345.39472198 C233.81878504 345.43728007 251.27277713 344.82526437 265.34863281 332.12939453 C266.51072266 331.08912109 266.51072266 331.08912109 267.69628906 330.02783203 C277.56482005 320.70297638 284.67797952 308.15618237 285.51660156 294.36767578 C285.6336266 276.83732495 279.94625511 263.12012461 268.34863281 250.12939453 C251.46927106 233.72383943 230.10649577 233.97627775 208.0871582 233.98413086 C206.39056322 233.9811319 204.69396892 233.9777277 202.99737549 233.97395325 C198.42970261 233.96519181 193.8620485 233.9627787 189.29436803 233.96213746 C186.43670094 233.96142339 183.57903853 233.95928251 180.7213726 233.95664024 C170.74222386 233.94741849 160.76308841 233.94330207 150.78393555 233.9440918 C141.49351062 233.94469431 132.20314343 233.93410047 122.91273314 233.91834813 C114.91753621 233.90527645 106.9223582 233.89990762 98.92715067 233.90054721 C94.15959949 233.90080196 89.39209989 233.89796224 84.6245594 233.88736916 C80.14864533 233.87769248 75.6728323 233.877606 71.19691467 233.88488579 C69.5562265 233.8859316 67.91553203 233.88356893 66.27485466 233.87752533 C64.03326106 233.86980308 61.79201643 233.87445129 59.5504303 233.88215637 C58.29708421 233.8816116 57.04373812 233.88106684 55.75241184 233.88050556 C52.20360659 234.13999905 47.99520955 234.48281779 45.34863281 237.12939453 Z " fill="#332C2B" transform="translate(683.6513671875,278.87060546875)"/>
<path d="M0 0 C1.37756753 -0.00115381 2.75513475 -0.00274308 4.13270134 -0.00472724 C7.90028457 -0.00888647 11.66784234 -0.00684513 15.43542564 -0.00374103 C19.50764693 -0.00147257 23.57986392 -0.00497418 27.65208435 -0.00772095 C35.63128978 -0.01216586 43.61048579 -0.01120676 51.58969159 -0.00830831 C58.09418785 -0.00604436 64.59868148 -0.00574606 71.10317802 -0.00683212 C72.49529673 -0.00706197 72.49529673 -0.00706197 73.91553904 -0.00729647 C75.80167898 -0.00761623 77.68781892 -0.00794045 79.57395887 -0.00826906 C97.26937381 -0.01112137 114.96478358 -0.00784326 132.66019767 -0.00246869 C147.75930249 0.00197625 162.8583996 0.00124214 177.95750427 -0.00338745 C195.54415242 -0.00877735 213.13079598 -0.01082274 230.71744484 -0.00777519 C232.60588992 -0.0074567 234.494335 -0.00714233 236.38278008 -0.00683212 C237.31153008 -0.00667785 238.24028009 -0.00652357 239.19717403 -0.00636462 C245.65864739 -0.00551089 252.12011775 -0.00695575 258.58159065 -0.00931168 C333.74528562 -0.03442954 333.74528562 -0.03442954 365.31712341 1.12698364 C366.97640117 5.03772907 367.56582478 7.91939484 367.56004333 12.18655396 C367.56311996 13.38419373 367.56619659 14.5818335 367.56936646 15.81576538 C367.55858818 17.7409903 367.55858818 17.7409903 367.54759216 19.70510864 C367.54639925 21.0407812 367.54594744 22.37645462 367.54620361 23.71212769 C367.54464361 26.50281063 367.53638769 29.29336441 367.52293396 32.08401489 C367.50587874 35.66765407 367.50212175 39.2511524 367.50287914 42.83482742 C367.50254274 46.24994019 367.49371326 49.66500631 367.48509216 53.08010864 C367.48397934 54.37168884 367.48286652 55.66326904 367.48171997 56.99398804 C367.47534012 58.17901917 367.46896027 59.36405029 367.46238708 60.58499146 C367.45857529 61.63358337 367.45476349 62.68217529 367.45083618 63.76254272 C367.31712341 66.12698364 367.31712341 66.12698364 366.31712341 67.12698364 C359.31032 68.14223298 352.4099831 68.27885992 345.33920288 68.28520203 C344.15953353 68.29014 342.97986418 68.29507798 341.76444727 68.30016559 C338.51252783 68.31280986 335.26063129 68.32113638 332.00869477 68.32759225 C328.49347045 68.33563962 324.9782674 68.34932228 321.46305847 68.36230469 C315.38015348 68.38400626 309.29724628 68.40217367 303.21432304 68.41790962 C294.41954367 68.44066605 285.62478789 68.46880071 276.8300286 68.4982289 C262.55954266 68.54583424 248.28904703 68.58911744 234.01853943 68.62966919 C220.15980781 68.6690601 206.30108478 68.71049489 192.44236755 68.75466919 C191.58746433 68.75739346 190.73256111 68.76011773 189.85175174 68.76292456 C185.56275889 68.77660463 181.27376617 68.79032479 176.98477352 68.80406487 C141.42890797 68.91791871 105.87302421 69.02475247 70.31712341 69.12698364 C69.16313004 71.43497038 69.12042195 72.93546124 69.00511169 75.50759888 C68.96377106 76.41470108 68.92243042 77.32180328 68.87983704 78.25639343 C68.84109467 79.24364914 68.80235229 80.23090485 68.76243591 81.24807739 C68.72039032 82.27468979 68.67834473 83.30130219 68.63502502 84.35902405 C68.24637026 94.6265806 68.16519105 104.88746064 68.18675232 115.16140747 C68.19212841 118.19230124 68.18675208 121.22304732 68.18040466 124.25393677 C68.1810656 126.26500479 68.18234707 128.27607272 68.18431091 130.28713989 C68.18127457 131.58350121 68.18127457 131.58350121 68.17817688 132.90605164 C68.21527309 143.32232241 68.80779009 153.72532669 69.31712341 164.12698364 C69.92958042 164.12606185 70.54203743 164.12514006 71.17305374 164.12419033 C90.97107112 164.09489391 110.76908811 164.07562716 130.56712341 164.06448364 C131.31684937 164.06404934 132.06657533 164.06361504 132.83902025 164.06316757 C207.03863726 164.02133373 207.03863726 164.02133373 242.50462341 164.62698364 C243.5561132 164.64492037 243.5561132 164.64492037 244.62884521 164.66321945 C252.52532127 164.7994541 260.42143423 164.95066244 268.31712341 165.12698364 C270.32643122 171.79199252 270.59495372 177.88232856 270.54759216 184.81838989 C270.54713394 185.92246689 270.54667572 187.02654388 270.54620361 188.16407776 C270.54319492 190.48790569 270.53535033 192.81173186 270.52293396 195.13552856 C270.50466413 198.6815815 270.50242466 202.22737287 270.50267029 205.77346802 C270.49775468 208.03844422 270.49192617 210.30341867 270.48509216 212.56838989 C270.48397934 213.6227272 270.48286652 214.67706451 270.48171997 215.76335144 C270.4133248 226.42711408 270.4133248 226.42711408 269.31712341 231.12698364 C263.91728807 234.72687387 257.61620266 234.27296909 251.3001709 234.24723816 C250.52239853 234.24809258 249.74462616 234.24894701 248.94328493 234.24982733 C246.35311149 234.25146638 243.76300371 234.24598667 241.1728363 234.24050903 C239.30975852 234.2402268 237.44668062 234.24038561 235.58360291 234.24095154 C230.53664794 234.24123808 225.48971681 234.23536438 220.44276738 234.22837758 C215.16435063 234.22212032 209.88593332 234.22153836 204.60751343 234.22035217 C194.61689691 234.21724586 184.62629136 234.20904189 174.63567966 234.19900268 C163.25967721 234.18781983 151.88367424 234.18232562 140.50766766 234.17730725 C117.1108135 234.1668587 93.71396907 234.1492728 70.31712341 234.12698364 C68.60426309 237.11120095 68.06856407 239.24070447 68.07661438 242.6701355 C68.07386505 243.57594864 68.07111572 244.48176178 68.06828308 245.4150238 C68.07547363 246.40117172 68.08266418 247.38731964 68.09007263 248.40335083 C68.08978058 249.44756699 68.08948853 250.49178314 68.08918762 251.56764221 C68.09058117 255.01979882 68.10614379 258.47173972 68.12181091 261.92385864 C68.12554095 264.31710695 68.12838796 266.71035679 68.13038635 269.10360718 C68.13802354 275.40337335 68.15767286 281.70304735 68.17979431 288.0027771 C68.20025084 294.43088535 68.20938766 300.85900848 68.21946716 307.28713989 C68.24091859 319.90046048 68.27467134 332.51371716 68.31712341 345.12698364 C69.21112194 345.12958802 69.21112194 345.12958802 70.12318105 345.132245 C105.47981835 345.23536702 140.83643689 345.34349936 176.19303889 345.45810058 C180.44232671 345.47186947 184.69161467 345.48559667 188.94090271 345.4992981 C190.20978955 345.50339055 190.20978955 345.50339055 191.50431047 345.50756568 C205.18515727 345.5515903 218.86601211 345.59224127 232.54687294 345.63163625 C246.59413212 345.67216175 260.64137646 345.71633409 274.68861371 345.76386219 C283.35017451 345.79305409 292.01173435 345.8194321 300.67331455 345.84216262 C306.62016453 345.85804192 312.56699641 345.87747694 318.51382621 345.89965206 C321.94016147 345.91232525 325.36648312 345.92348448 328.79283524 345.93040276 C332.51927949 345.93874967 336.24565697 345.95304917 339.97207642 345.96876526 C341.03923879 345.96974337 342.10640117 345.97072147 343.2059018 345.97172922 C364.27548987 346.0853501 364.27548987 346.0853501 366.31712341 348.12698364 C368.69439641 366.38209237 367.59860883 385.42063143 366.87962341 403.75198364 C366.84046814 404.78315308 366.80131287 405.81432251 366.76097107 406.8767395 C366.69788757 408.28838379 366.69788757 408.28838379 366.63352966 409.72854614 C366.59687195 410.55692993 366.56021423 411.38531372 366.52244568 412.23880005 C366.31712341 414.12698364 366.31712341 414.12698364 365.31712341 415.12698364 C357.81270785 416.24616677 350.38867248 416.26751655 342.8130188 416.25396729 C341.45480123 416.25512115 340.09658398 416.25671045 338.73836738 416.25869453 C335.02411278 416.26285323 331.30988401 416.26081263 327.59562933 416.25770831 C323.58059177 416.25543955 319.56555855 416.25894169 315.55052185 416.26168823 C307.68227028 416.26613335 299.81402825 416.2651738 291.94577631 416.26227559 C285.52903372 416.26001102 279.11229379 416.25971362 272.69555092 416.26079941 C271.77972812 416.26095264 270.86390532 416.26110587 269.92033032 416.26126375 C268.0590013 416.26158352 266.19767228 416.26190774 264.33634327 416.26223634 C246.87162331 416.2650889 229.40690859 416.26181053 211.94218949 416.25643598 C197.05129567 416.2519943 182.16040967 416.25272235 167.26951599 416.25735474 C149.91868407 416.26274999 132.56785679 416.26478684 115.21702415 416.26174247 C113.35209866 416.261424 111.48717318 416.26110963 109.6222477 416.26079941 C108.70511698 416.26064513 107.78798626 416.26049086 106.84306371 416.26033191 C100.47363887 416.2594795 94.10421708 416.26092245 87.73479271 416.26327896 C21.80544471 416.28544232 21.80544471 416.28544232 -5.44923401 415.68118286 C-6.36879651 415.66177084 -7.28835901 415.64235882 -8.23578703 415.62235856 C-10.71622926 415.56766795 -13.19630559 415.50534593 -15.67645264 415.4387207 C-16.38800723 415.42242512 -17.09956182 415.40612955 -17.83267868 415.38934016 C-22.5660427 415.24381752 -22.5660427 415.24381752 -23.68287659 414.12698364 C-23.7818341 411.95623653 -23.80843401 409.7821953 -23.80871773 407.6091938 C-23.81017117 406.91670554 -23.81162461 406.22421727 -23.81312209 405.51074451 C-23.81680801 403.16105194 -23.81328376 400.81142319 -23.80986023 398.46173096 C-23.81101103 396.77183749 -23.81259828 395.08194427 -23.81458747 393.39205158 C-23.81878652 388.72545078 -23.81668752 384.05887027 -23.81360126 379.39226937 C-23.81134967 374.368323 -23.81482558 369.34438024 -23.81758118 364.32043457 C-23.82204066 354.46891451 -23.82106156 344.61740204 -23.81816854 334.76588167 C-23.81591494 326.7620202 -23.81560179 318.75816086 -23.81669235 310.75429916 C-23.81684559 309.61740271 -23.81699882 308.48050626 -23.81715669 307.30915841 C-23.8174764 304.99992713 -23.81780062 302.69069586 -23.81812929 300.38146459 C-23.82098467 278.69895031 -23.81769628 257.01644025 -23.81232892 235.33392666 C-23.80786203 216.71237193 -23.80863575 198.09082342 -23.81324768 179.4692688 C-23.81859449 157.87020829 -23.8207087 136.27115149 -23.81763542 114.67209041 C-23.81731685 112.37049349 -23.81700248 110.06889657 -23.81669235 107.76729965 C-23.81653808 106.63473157 -23.8163838 105.50216348 -23.81622485 104.33527515 C-23.81535993 96.33816151 -23.81682207 88.3410502 -23.81917191 80.34393692 C-23.82197134 70.60207501 -23.82122864 60.86022116 -23.81589116 51.11836018 C-23.81325591 46.14392251 -23.81224611 41.16949831 -23.81554031 36.19506073 C-23.81850695 31.64659471 -23.81690425 27.0981547 -23.81156276 22.54969107 C-23.81044014 20.89893852 -23.81102635 19.2481838 -23.81343855 17.59743263 C-23.81645369 15.36374187 -23.81338634 13.13014169 -23.80871773 10.89645576 C-23.80855538 9.65265432 -23.80839302 8.40885287 -23.80822575 7.12736046 C-23.68287659 4.12698364 -23.68287659 4.12698364 -22.68287659 1.12698364 C-15.09661991 0.10281236 -7.64880018 -0.01348236 0 0 Z " fill="#332C2B" transform="translate(1668.682876586914,277.8730163574219)"/>
<path d="M0 0 C3.23425592 0.67693729 4.53790072 1.98355568 6.4921875 4.6015625 C10.6103426 11.35749016 12.51981187 18.8065925 13.6875 26.5625 C13.79964844 27.28308594 13.91179687 28.00367187 14.02734375 28.74609375 C16.80549159 50.7048787 15.02929148 76.08818415 2.375 94.9375 C-4.99856666 104.40962311 -13.4749995 112.85819607 -21.97667313 121.30183792 C-23.89726462 123.2094559 -25.81453058 125.12036402 -27.73104858 127.03207397 C-31.79703062 131.08673384 -35.86696114 135.1374155 -39.9375 139.1875 C-44.66756019 143.89383663 -49.39592037 148.6018563 -54.1200676 153.31412888 C-55.9962434 155.18388981 -57.87543586 157.05058062 -59.75479126 158.91714478 C-66.46510713 165.55644834 -66.46510713 165.55644834 -72.79711914 172.55151367 C-77.50545104 178.07515601 -82.75908339 183.08472912 -87.91803932 188.18207359 C-89.86721099 190.10899694 -91.81219823 192.04005433 -93.75602722 193.97236633 C-99.27733874 199.46027932 -104.80294223 204.94381547 -110.33862305 210.41723633 C-113.73771139 213.77867949 -117.12944524 217.14739444 -120.51657677 220.52088356 C-121.80440845 221.80067197 -123.0950096 223.07767984 -124.38843727 224.35181236 C-126.19274325 226.12963723 -127.98755408 227.91655747 -129.78051758 229.70581055 C-130.58077614 230.4875338 -130.58077614 230.4875338 -131.39720154 231.28504944 C-134.27254252 234.17613988 -136.11197519 236.64677374 -137.3125 240.5625 C-132.01844268 246.85767348 -126.31866112 252.7116924 -120.49487305 258.51049805 C-118.98171334 260.01822096 -117.47407115 261.53131759 -115.96679688 263.04492188 C-115.00292526 264.00813392 -114.03874416 264.9710364 -113.07421875 265.93359375 C-112.20756592 266.79911865 -111.34091309 267.66464355 -110.44799805 268.55639648 C-108.47765239 270.5992774 -108.47765239 270.5992774 -106.3125 271.5625 C-105.8175 273.0475 -105.8175 273.0475 -105.3125 274.5625 C-104.3225 274.8925 -103.3325 275.2225 -102.3125 275.5625 C-97.24161077 272.77171274 -93.40124848 268.92290549 -89.375 264.8125 C-88.79298828 264.22984375 -88.21097656 263.6471875 -87.61132812 263.046875 C-84.59490384 260.00038668 -81.69967416 256.88965352 -78.90234375 253.640625 C-74.41803915 248.45809394 -69.51535084 243.7169993 -64.62890625 238.91796875 C-61.30590352 235.6310203 -58.06598693 232.33769715 -55.03125 228.78125 C-49.62883844 222.50210422 -43.60081843 216.7959405 -37.70996094 210.98046875 C-32.29504069 205.62862851 -26.95754336 200.28045033 -22.01171875 194.484375 C-17.9156537 189.85158419 -13.39169548 185.60680965 -8.984375 181.2734375 C-4.77595933 177.10796484 -0.75079794 172.86904613 3.10595703 168.37597656 C4.52572682 166.74799725 5.98352005 165.18971381 7.49609375 163.6484375 C19.67622559 151.08824211 26.33518091 135.56637726 33.3828125 119.76953125 C33.89585937 118.62871094 34.40890625 117.48789063 34.9375 116.3125 C35.37578125 115.31734375 35.8140625 114.3221875 36.265625 113.296875 C37.79049341 110.36443575 39.47054685 108.01120565 41.6875 105.5625 C44.125 104.8125 44.125 104.8125 46.6875 105.5625 C51.14166016 110.89030573 53.30320309 116.23582459 55.375 122.8125 C55.82661499 124.22607788 55.82661499 124.22607788 56.28735352 125.66821289 C62.97615491 146.99372901 63.10195243 168.27327819 53.5 188.75 C47.45181286 200.15442067 39.19806984 209.48081392 30.37792969 218.77050781 C28.57231984 220.68460028 26.78877277 222.61764933 25.0078125 224.5546875 C18.51558719 231.59223972 11.92580335 238.31321733 4.77799988 244.68223572 C1.86074705 247.34819165 -0.78697645 250.19618948 -3.42553711 253.14038086 C-8.67329748 258.93567676 -14.12435242 264.4943983 -19.67419624 269.99936104 C-21.30377809 271.61587826 -22.92995006 273.23576337 -24.55540466 274.85643005 C-27.99240362 278.2821723 -31.43341231 281.70386859 -34.875 285.125 C-38.89984078 289.12615623 -42.92297674 293.12899866 -46.94196892 297.1360302 C-48.54085919 298.72846237 -50.14273584 300.31784759 -51.74476624 301.90711975 C-52.7200462 302.8787692 -53.69518716 303.85055818 -54.67016602 304.82250977 C-55.52079117 305.6678981 -56.37141632 306.51328644 -57.24781799 307.3842926 C-59.44843534 309.58243314 -59.44843534 309.58243314 -61.3125 312.5625 C-61.05901079 316.74507196 -59.72021143 318.59403875 -56.6875 321.375 C-53.89091142 324.02702339 -51.2544088 326.69467133 -48.75 329.625 C-45.99384612 332.83113819 -43.09873576 335.81367154 -40.06640625 338.7578125 C-37.56962121 341.32688753 -35.37549615 344.12950249 -33.18359375 346.9609375 C-30.52105409 349.23993804 -28.80741314 349.60624109 -25.3125 349.5625 C-22.45694406 347.52034464 -22.45694406 347.52034464 -19.9375 344.5625 C-16.93839371 341.30683299 -13.99637029 338.23395912 -10.62854004 335.36018372 C-6.33711427 331.63103924 -2.29691144 327.69478593 1.72070312 323.67456055 C2.47955307 322.91906921 3.23840302 322.16357788 4.02024841 321.38519287 C6.50571331 318.90915732 8.98745631 316.42943389 11.46875 313.94921875 C13.20927848 312.21190794 14.94988028 310.47467058 16.69055176 308.73750305 C20.33014819 305.1038775 23.96768879 301.46820797 27.60400391 297.83129883 C32.24550002 293.1897011 36.89383919 288.55502293 41.54398346 283.92209148 C45.1386716 280.33856332 48.72876351 276.75045722 52.31761169 273.16108131 C54.0286752 271.45119156 55.74134584 269.74290838 57.45570374 268.03632164 C77.96098254 247.61532718 93.19843413 226.40581858 101.6796875 198.44140625 C102.6875 195.5625 102.6875 195.5625 104.6875 193.5625 C107.26474219 193.72877369 108.37169223 194.22193973 110.1328125 196.12109375 C121.76548345 214.38847903 124.06917049 242.43221643 120.625 263.3125 C116.96496428 278.95083445 108.7575885 288.59596954 97.6875 299.5625 C96.20654532 301.04378517 94.72609083 302.52557057 93.24609375 304.0078125 C91.0505587 306.20547638 88.85228964 308.39942425 86.63720703 310.57739258 C83.42144559 313.75042605 80.30885668 316.94555397 77.37109375 320.37890625 C72.32548547 326.23765271 66.73233941 331.57459197 61.23046875 336.99902344 C55.48738798 342.6685742 49.89615526 348.39244256 44.6875 354.5625 C42.875 356.65625 42.875 356.65625 41.0625 358.75 C40.53398437 359.36230469 40.00546875 359.97460938 39.4609375 360.60546875 C34.90831877 365.62939382 29.90708427 370.15307478 24.85546875 374.66210938 C20.63472369 378.50146181 16.87629277 382.66131926 13.08789062 386.92407227 C9.07227834 391.33789672 4.8131104 395.50158687 0.5625 399.6875 C-5.30319895 405.46472687 -10.97166876 411.295544 -16.3125 417.5625 C-19.85781761 421.60796063 -22.77331707 424.93033558 -27.8125 427 C-36.35514055 425.93216993 -43.86046132 415.16016581 -49.69140625 409.31640625 C-50.67196881 408.33651947 -51.65267959 407.35678099 -52.63352966 406.37718201 C-54.67650213 404.3356736 -56.71768169 402.29239434 -58.75756836 400.24780273 C-61.35169866 397.64797596 -63.95029434 395.05266627 -66.5502634 392.45868015 C-68.57257825 390.44000604 -70.5924719 388.41892267 -72.61167717 386.3971386 C-74.02766246 384.98017676 -75.44563515 383.56520183 -76.86366272 382.15028381 C-77.73824631 381.27254807 -78.6128299 380.39481232 -79.51391602 379.49047852 C-80.27366226 378.72993668 -81.03340851 377.96939484 -81.81617737 377.18580627 C-83.81493275 375.08537764 -85.71797325 372.95598142 -87.61070251 370.76231384 C-91.34361633 366.46811901 -95.30319713 362.44485211 -99.33984375 358.4375 C-100.10990753 357.66889648 -100.87997131 356.90029297 -101.67337036 356.10839844 C-103.33257108 354.45297995 -104.99292521 352.79871686 -106.65432739 351.14550781 C-109.28880318 348.52388614 -111.92006325 345.89907422 -114.55053711 343.2734375 C-120.13505171 337.70030777 -125.72345721 332.13108768 -131.3125 326.5625 C-137.79299024 320.10572744 -144.27177529 313.64725739 -150.74636841 307.18457031 C-153.32942943 304.60795682 -155.915501 302.03439171 -158.50170898 299.4609375 C-160.09634047 297.86994106 -161.69083031 296.27880263 -163.28515625 294.6875 C-163.99705109 293.98077148 -164.70894592 293.27404297 -165.44241333 292.54589844 C-169.37619286 288.61253119 -173.12795858 284.58076036 -176.74569702 280.35415649 C-179.31884453 277.41173392 -182.0915546 274.67928068 -184.875 271.9375 C-185.76747437 271.05070557 -185.76747437 271.05070557 -186.67797852 270.14599609 C-188.55369657 268.282335 -190.43264903 266.42199158 -192.3125 264.5625 C-197.00493531 259.92088529 -201.67827811 255.26227174 -206.3125 250.5625 C-207.1271875 249.74394531 -207.941875 248.92539063 -208.78125 248.08203125 C-209.4309375 247.39496094 -210.080625 246.70789063 -210.75 246 C-211.28496094 245.44183594 -211.81992188 244.88367188 -212.37109375 244.30859375 C-213.3125 242.5625 -213.3125 242.5625 -213.05688477 239.9699707 C-212.21150543 237.23586586 -211.18492149 235.84359386 -209.25 233.75 C-208.61835938 233.06421875 -207.98671875 232.3784375 -207.3359375 231.671875 C-206.66820312 230.97578125 -206.00046875 230.2796875 -205.3125 229.5625 C-204.34183594 228.54929688 -204.34183594 228.54929688 -203.3515625 227.515625 C-200.20624031 224.30814229 -196.9812533 221.25819811 -193.58984375 218.3125 C-189.23139809 214.51949615 -185.01262144 210.59178136 -180.8125 206.625 C-180.10480469 205.96048828 -179.39710938 205.29597656 -178.66796875 204.61132812 C-169.50721692 196.0244464 -169.50721692 196.0244464 -161.0625 186.75 C-155.84315676 180.68266278 -149.75944785 175.33896264 -143.66491699 170.16333008 C-137.33966069 164.76035667 -131.49255461 158.88803286 -125.62109375 153.00390625 C-124.50600989 151.88949782 -123.39077778 150.77523771 -122.27540588 149.66111755 C-119.94996238 147.33713979 -117.62631489 145.01138536 -115.30395508 142.68432617 C-112.34662097 139.72129549 -109.38481872 136.7627783 -106.42164516 133.80558872 C-104.12139402 131.50897368 -101.82355769 129.20995434 -99.52641487 126.91023064 C-98.43604703 125.81920194 -97.3449532 124.72889823 -96.25308037 123.63937569 C-90.93194765 118.32718902 -85.66356501 113.01378481 -80.80055237 107.27073669 C-77.97980756 104.03261155 -74.87688439 101.06765218 -71.8125 98.0625 C-67.39553901 93.68794785 -63.05871857 89.31811192 -59.03515625 84.57421875 C-53.36854946 77.95675277 -47.41414831 71.59107588 -41.1875 65.5 C-36.13866049 60.49901679 -31.69173317 55.15219022 -27.3125 49.5625 C-26.18328125 48.17611328 -26.18328125 48.17611328 -25.03125 46.76171875 C-15.54024837 34.75170128 -10.02840083 21.74897269 -5.5390625 7.23046875 C-3.39756439 0.82643458 -3.39756439 0.82643458 0 0 Z " fill="#09AD4C" transform="translate(310.3125,-0.5625)"/>
</svg>
