<?xml version="1.0" encoding="UTF-8"?>
<svg version="1.1" xmlns="http://www.w3.org/2000/svg" width="2160" height="405">
<path d="M0 0 C1.774533 0.01061211 1.774533 0.01061211 3.58491516 0.0214386 C7.3242095 0.04919044 11.06194761 0.11189635 14.80078125 0.17578125 C17.35219176 0.20088878 19.90362598 0.22369761 22.45507812 0.24414062 C28.67500063 0.29895409 34.89402972 0.3823867 41.11328125 0.48828125 C41.11914749 1.55823837 41.12501373 2.6281955 41.13105774 3.73057556 C41.18839166 13.83790911 41.26120886 23.94502972 41.34899616 34.05214596 C41.39363082 39.24772005 41.43290213 44.44321697 41.4597168 49.63891602 C41.48581867 54.65762226 41.52626966 59.67603044 41.57646751 64.69455147 C41.59308975 66.60455161 41.60463283 68.51460325 41.61089516 70.42466545 C41.62058695 73.11016605 41.64870609 75.79491205 41.6809082 78.48022461 C41.67875557 79.65195976 41.67875557 79.65195976 41.67655945 80.84736633 C41.80418935 88.4248922 43.5669968 95.56555014 48.73828125 101.30078125 C49.34929687 102.00847656 49.9603125 102.71617187 50.58984375 103.4453125 C56.77346825 108.45155958 63.23733275 110.08511288 71.05409241 110.00726318 C71.90707757 110.01476444 72.76006273 110.02226569 73.63889593 110.02999425 C76.47183831 110.05015099 79.30397112 110.04219252 82.13696289 110.03417969 C84.17768133 110.04292123 86.21839293 110.05340904 88.25909424 110.06550598 C93.78116722 110.09331517 99.30301599 110.09677178 104.82514882 110.09578609 C110.60275724 110.09891954 116.38026533 110.12454679 122.15782166 110.14776611 C133.09042972 110.18829646 144.02297818 110.2086599 154.95564979 110.22174001 C169.73461876 110.2405909 184.51347998 110.29067139 199.29237652 110.33898354 C222.56600583 110.41424322 245.83950506 110.4478438 269.11328125 110.48828125 C269.11328125 74.18828125 269.11328125 37.88828125 269.11328125 0.48828125 C325.33162186 0.48828125 325.33162186 0.48828125 333.69921875 6.27734375 C334.58480469 7.18613281 334.58480469 7.18613281 335.48828125 8.11328125 C336.09414063 8.70367187 336.7 9.2940625 337.32421875 9.90234375 C342.30563773 17.10256071 343.70448996 24.36555568 343.62121582 32.96937561 C343.63057576 34.47949767 343.63057576 34.47949767 343.6401248 36.02012724 C343.6559825 39.36790987 343.64347857 42.71495709 343.63085938 46.06274414 C343.63628364 48.47323529 343.64340801 50.88372313 343.65209961 53.29420471 C343.66841128 59.14602518 343.66607155 64.99761494 343.65444905 70.84944231 C343.64539252 75.60743886 343.64420028 80.36537795 343.64854431 85.12338066 C343.64915724 85.80216612 343.64977018 86.48095158 343.65040168 87.1803063 C343.65168066 88.55950139 343.65297751 89.93869647 343.65429205 91.31789153 C343.66568035 104.23060757 343.65261125 117.14320976 343.63109058 130.05590712 C343.61321711 141.12269621 343.61632909 152.18931745 343.63476562 163.25610352 C343.65619637 176.12612415 343.66458613 188.99604519 343.65231657 201.86608118 C343.65104245 203.23971997 343.64978496 204.61335878 343.64854431 205.9869976 C343.64761866 207.00062986 343.64761866 207.00062986 343.64667431 208.03473954 C343.6432283 212.7845729 343.64903343 217.53434281 343.65846252 222.28416634 C343.67088546 228.68236449 343.66197652 235.08032073 343.6388855 241.47849083 C343.63360401 243.82420959 343.63510254 246.16995507 343.64393616 248.51566315 C343.65489675 251.72218987 343.64112076 254.92770776 343.62121582 258.13417053 C343.63460015 259.5203753 343.63460015 259.5203753 343.64825487 260.9345842 C343.53975345 269.97032189 340.30291661 277.09958529 334.16796875 283.6953125 C325.35023761 291.38987256 315.47187051 291.6450206 304.3671875 291.5859375 C303.35607407 291.58452255 302.34496063 291.5831076 301.3032074 291.58164978 C298.09403444 291.57608086 294.88493289 291.56353412 291.67578125 291.55078125 C289.49153747 291.54576223 287.30729259 291.54120003 285.12304688 291.53710938 C279.78643423 291.52612162 274.44986285 291.50941461 269.11328125 291.48828125 C269.10963562 290.47065704 269.10598999 289.45303284 269.10223389 288.40457153 C269.0651856 278.78313952 269.00730599 269.16202465 268.92937851 259.54083443 C268.88998145 254.59524392 268.85775496 249.64982939 268.84228516 244.70410156 C268.82706725 239.925221 268.79253113 235.1468245 268.74497223 230.36816025 C268.7302112 228.5510976 268.72224328 226.73396582 268.7213974 224.91684341 C268.71089305 213.65954274 268.30615896 204.83749606 261.92578125 195.17578125 C254.70182123 188.27288612 247.60109341 186.34219775 237.84967041 186.33006287 C237.00912448 186.32512489 236.16857854 186.32018691 235.30256152 186.3150993 C232.48198311 186.29972355 229.66142747 186.29136345 226.84082031 186.28295898 C224.82054951 186.27338052 222.80028072 186.26337046 220.78001404 186.25296021 C215.29076937 186.22590162 209.80151609 186.20489719 204.31224155 186.18495822 C198.5773467 186.16310458 192.84247841 186.13571284 187.10760498 186.10890198 C176.24567554 186.0589667 165.38373137 186.01403095 154.5217731 185.97087961 C139.84550673 185.91228728 125.16927528 185.8459959 110.49304008 185.78012943 C87.36647733 185.67654168 64.23988467 185.58326118 41.11328125 185.48828125 C41.11328125 220.46828125 41.11328125 255.44828125 41.11328125 291.48828125 C-16.60671875 291.48828125 -16.60671875 291.48828125 -25.88671875 283.48828125 C-33.66381976 275.57533568 -35.34602243 265.94900315 -35.2743988 255.21046448 C-35.27978434 254.22554533 -35.28516988 253.24062619 -35.29071862 252.22586101 C-35.30493451 248.95195759 -35.29791017 245.67846214 -35.29077148 242.40454102 C-35.29647835 240.04655637 -35.30344383 237.68857448 -35.31156921 235.33059692 C-35.32948006 228.94425056 -35.32833615 222.55804175 -35.32262683 216.17167783 C-35.32031177 212.17843345 -35.3225299 208.18520985 -35.32710457 204.19196892 C-35.32785299 203.52763771 -35.32860141 202.8633065 -35.32937251 202.17884405 C-35.3309041 200.82896542 -35.33244245 199.47908681 -35.33398748 198.1292082 C-35.34769291 185.49066806 -35.34228848 172.85218994 -35.33080227 160.21365123 C-35.3208705 148.66920702 -35.33381301 137.12492309 -35.35773646 125.58050359 C-35.38215958 113.70481692 -35.39172755 101.8292048 -35.38508373 89.95349354 C-35.38159882 83.29491592 -35.3841131 76.63644333 -35.40133476 69.97787666 C-35.41682458 63.71590517 -35.41282531 57.45423932 -35.39402962 51.19227982 C-35.39034953 48.89899821 -35.39343519 46.60569385 -35.40391541 44.31243324 C-35.51882169 17.08248533 -35.51882169 17.08248533 -25.97285461 7.19584656 C-18.14816903 0.79110472 -9.78423862 -0.22455888 0 0 Z " fill="#234620" transform="translate(428.88671875,113.51171875)"/>
<path d="M0 0 C3.39209338 0.00315386 6.78330721 -0.02034097 10.17529297 -0.0456543 C29.32316703 -0.10099472 48.83517815 -0.00703639 63.6237793 13.60375977 C67.9652804 18.23947968 70.80300524 23.55905925 73.78857422 29.12817383 C74.47014229 30.36431892 75.1537852 31.59932199 75.83935547 32.83325195 C77.25653626 35.38770246 78.66483192 37.94674421 80.06689453 40.50952148 C83.34972616 46.49204768 86.76424535 52.39880317 90.16357422 58.31567383 C91.49825234 60.64823947 92.83091002 62.98195714 94.16357422 65.31567383 C94.83020364 66.48236178 95.4968703 67.64902845 96.16357422 68.81567383 C114.16357422 100.31567383 114.16357422 100.31567383 132.16357422 131.81567383 C132.65856667 132.68190872 132.65856667 132.68190872 133.16355896 133.56564331 C133.83028087 134.7324092 134.4969984 135.89917759 135.16371155 137.06594849 C136.82949706 139.98111761 138.49535849 142.8962433 140.16137695 145.8112793 C143.17197172 151.07909592 146.18200121 156.34723153 149.18922424 161.61697388 C156.01135989 173.57177178 162.8456774 185.51926537 169.72607422 197.44067383 C170.3410376 198.50632568 170.95600098 199.57197754 171.58959961 200.66992188 C174.69062162 206.0408187 177.79688996 211.408613 180.90966797 216.77270508 C187.94317163 228.90684815 194.86719306 241.09326455 201.6484375 253.37036133 C204.71967081 258.92868345 207.81149307 264.47281345 210.96044922 269.98754883 C211.5629248 271.04369385 212.16540039 272.09983887 212.78613281 273.18798828 C213.92561266 275.18104616 215.0689611 277.17189896 216.21679688 279.16015625 C216.72259277 280.04550049 217.22838867 280.93084473 217.74951172 281.84301758 C218.19343262 282.61379639 218.63735352 283.3845752 219.09472656 284.17871094 C220.12516258 286.23887688 220.64553585 288.08369302 221.16357422 290.31567383 C212.47812855 290.45603374 203.79308598 290.56197153 195.10674477 290.62654686 C191.07123773 290.65757397 187.03651858 290.69950481 183.00146484 290.76831055 C140.77892171 291.46850313 140.77892171 291.46850313 127.70947266 280.07983398 C124.48472108 276.39978741 122.14049599 272.27423989 119.78857422 268.00317383 C118.23358143 265.26790945 116.6779453 262.53532895 115.08513451 259.82186031 C113.66456053 257.22980151 112.47253326 254.7583392 111.31582069 252.05650425 C107.72722221 243.94353091 107.72722221 243.94353091 101.19877195 238.33729243 C95.45980415 236.77780918 89.55996008 237.12280856 83.66894531 237.29394531 C81.69701979 237.2888724 79.72510154 237.27631255 77.75326538 237.25686646 C72.42115502 237.22535744 67.0950346 237.29808525 61.76381636 237.39004779 C56.1851595 237.46839134 50.60682211 237.45020004 45.02774048 237.44239807 C34.47302086 237.44223012 23.92085861 237.52844475 13.3668648 237.64596754 C1.34760253 237.77558091 -10.67132195 237.80848983 -22.69118619 237.83341491 C-47.40738432 237.88682729 -72.12153722 238.06123134 -96.83642578 238.31567383 C-97.13530701 239.24312408 -97.43418823 240.17057434 -97.74212646 241.12612915 C-98.89994263 244.50080582 -100.37680793 247.40554248 -102.10205078 250.52661133 C-102.41793152 251.09844147 -102.73381226 251.67027161 -103.05926514 252.25942993 C-103.72578145 253.46252611 -104.39487042 254.6642003 -105.06640625 255.86450195 C-106.07740667 257.67452664 -107.07652361 259.49074401 -108.07470703 261.30786133 C-116.44836574 276.43219068 -123.56508378 284.34993061 -140.42163086 289.26815796 C-147.39626652 291.08394523 -154.33709305 290.93609474 -161.49267578 290.80395508 C-163.01679302 290.79459414 -164.54092562 290.78749363 -166.06506348 290.78251648 C-170.0174338 290.76370363 -173.96884008 290.71483707 -177.9208374 290.65899658 C-181.97720305 290.60723761 -186.03372919 290.5848834 -190.09033203 290.55981445 C-198.00613205 290.50668312 -205.921158 290.42169733 -213.83642578 290.31567383 C-213.03621333 285.61004406 -211.18489291 282.15525568 -208.71142578 278.12817383 C-207.79472773 276.60293281 -206.87945538 275.07683434 -205.96533203 273.55004883 C-205.46404785 272.71538086 -204.96276367 271.88071289 -204.44628906 271.02075195 C-201.46072559 266.00406356 -198.55963957 260.93852937 -195.64892578 255.87817383 C-194.35340437 253.62944624 -193.05783076 251.38074872 -191.76220703 249.13208008 C-191.11203613 248.00302246 -190.46186523 246.87396484 -189.79199219 245.71069336 C-186.64310522 240.24397398 -183.48954542 234.77995254 -180.33642578 229.31567383 C-179.08511908 227.14640566 -177.833817 224.97713482 -176.58251953 222.80786133 C-174.09711676 218.49965731 -171.61000601 214.19244593 -169.12158203 209.88598633 C-160.65566683 195.23100351 -152.24090268 180.54734721 -143.85253906 165.84790039 C-140.84909402 160.58519462 -137.84212613 155.32450197 -134.8354187 150.06365967 C-133.16894296 147.14774711 -131.50269597 144.23170385 -129.83642578 141.31567383 C-129.16976021 140.14900654 -128.50309354 138.98233987 -127.83642578 137.81567383 C-127.50642578 137.23817383 -127.17642578 136.66067383 -126.83642578 136.06567383 C-91.83642578 74.81567383 -91.83642578 74.81567383 -90.83657837 73.06596375 C-90.16937679 71.89834571 -89.50220153 70.73071263 -88.83505249 69.56306458 C-87.17678447 66.66083014 -85.51797194 63.75891023 -83.85839844 60.85742188 C-80.75798455 55.43570573 -77.66158627 50.01186254 -74.58050537 44.57913208 C-73.13934208 42.03861112 -71.69573632 39.49948198 -70.25195312 36.96044922 C-69.57039852 35.76029264 -68.89001517 34.55946998 -68.2109375 33.35791016 C-59.35756748 17.69442654 -52.93951225 7.40889693 -34.83642578 2.31567383 C-23.39966035 -0.37553215 -11.67603384 -0.02267028 0 0 Z M3.16357422 64.31567383 C1.7714308 66.20271648 1.7714308 66.20271648 0.39794922 68.68676758 C-0.15489746 69.64035156 -0.70774414 70.59393555 -1.27734375 71.57641602 C-1.87434082 72.62474609 -2.47133789 73.67307617 -3.08642578 74.75317383 C-3.71049316 75.83630859 -4.33456055 76.91944336 -4.97753906 78.03540039 C-9.86639416 86.54640246 -14.66807104 95.106469 -19.44726562 103.67944336 C-23.82121538 111.52301392 -28.25055234 119.33381257 -32.71142578 127.12817383 C-33.04046906 127.70331726 -33.36951233 128.27846069 -33.70852661 128.87103271 C-36.8207212 134.31030201 -39.9367696 139.74735932 -43.0546875 145.18334961 C-44.90027002 148.40109372 -46.7443778 151.61967947 -48.58770752 154.8387146 C-49.62294374 156.6453319 -50.66006568 158.45085726 -51.69726562 160.25634766 C-52.32713379 161.35615967 -52.95700195 162.45597168 -53.60595703 163.58911133 C-54.15872314 164.55252441 -54.71148926 165.5159375 -55.28100586 166.50854492 C-56.88291395 169.39957289 -58.35830858 172.35943943 -59.83642578 175.31567383 C-17.92642578 175.31567383 23.98357422 175.31567383 67.16357422 175.31567383 C65.65793025 171.5515639 64.13156053 168.28027319 62.17919922 164.76489258 C61.28201172 163.14744141 61.28201172 163.14744141 60.36669922 161.49731445 C59.71588133 160.33247585 59.06483361 159.16776564 58.41357422 158.00317383 C57.91470703 157.10755737 57.91470703 157.10755737 57.40576172 156.19384766 C52.20131079 146.8514113 46.8583976 137.59676914 41.43603516 128.37890625 C36.41104435 119.8092255 31.59532831 111.13103643 26.79760742 102.43261719 C21.84864058 93.48533616 16.74319246 84.63740067 11.55419922 75.82739258 C11.00634766 74.89668945 10.45849609 73.96598633 9.89404297 73.00708008 C9.41346436 72.19440674 8.93288574 71.3817334 8.43774414 70.54443359 C7.268495 68.49919975 6.19295262 66.4341267 5.16357422 64.31567383 C4.50357422 64.31567383 3.84357422 64.31567383 3.16357422 64.31567383 Z " fill="#234520" transform="translate(1813.83642578125,113.684326171875)"/>
<path d="M0 0 C1.87661316 0.00453186 1.87661316 0.00453186 3.7911377 0.00915527 C8.44547831 0.02480083 13.09970093 0.06668466 17.75390625 0.10546875 C33.37734375 0.19828125 33.37734375 0.19828125 49.31640625 0.29296875 C49.64640625 40.22296875 49.97640625 80.15296875 50.31640625 121.29296875 C53.61640625 118.32296875 56.91640625 115.35296875 60.31640625 112.29296875 C62.11357338 110.77463198 63.92249449 109.26981919 65.75390625 107.79296875 C66.67300781 107.04789062 67.59210938 106.3028125 68.5390625 105.53515625 C69.45558594 104.79523438 70.37210937 104.0553125 71.31640625 103.29296875 C77.19830295 98.515533 83.04085532 93.69819629 88.81640625 88.79296875 C93.5856232 84.74296364 98.39552741 80.74945019 103.24609375 76.796875 C112.82792546 68.982684 122.37210933 61.12603701 131.79345703 53.11889648 C135.90497217 49.62879978 140.06541934 46.20357616 144.24609375 42.796875 C153.82056995 34.98868258 163.36055685 27.14128858 172.77148438 19.13647461 C177.0291205 15.52004064 181.34357625 11.97784823 185.68359375 8.4609375 C188.19248017 6.49068871 188.19248017 6.49068871 189.718606 4.79269981 C193.98856887 0.47717647 197.23183345 -0.4011085 203.23155212 -0.45355225 C204.75069969 -0.42119476 204.75069969 -0.42119476 206.30053711 -0.38818359 C207.92603989 -0.38949783 207.92603989 -0.38949783 209.5843811 -0.39083862 C213.15074841 -0.38667299 216.71521303 -0.34006516 220.28125 -0.29296875 C222.75988233 -0.28177308 225.23852797 -0.27323465 227.71717834 -0.26724243 C234.229308 -0.24437392 240.74063003 -0.18546561 247.25244141 -0.11901855 C253.90186322 -0.05429645 260.5515207 -0.03021842 267.20117188 0 C280.23992716 0.06427777 293.27812367 0.16547567 306.31640625 0.29296875 C299.02354913 7.61453196 291.33136439 14.34442212 283.30078125 20.84375 C279.92879262 23.61107575 276.61975179 26.44443815 273.31640625 29.29296875 C269.19185014 32.84764089 265.04432313 36.36089505 260.81640625 39.79296875 C255.41564453 44.18009777 250.14172925 48.70520287 244.8671875 53.2421875 C237.60609622 59.48724196 230.31087196 65.68928025 222.87890625 71.73046875 C218.015116 75.68805063 213.25759394 79.75839321 208.50805664 83.85131836 C204.11840275 87.62631266 199.65525854 91.30025336 195.16015625 94.94921875 C191.83954139 97.68598924 188.57593843 100.48399825 185.31640625 103.29296875 C181.19172421 106.84750036 177.04432913 110.36089018 172.81640625 113.79296875 C167.35156683 118.23112976 162.00991178 122.80498554 156.67578125 127.3984375 C156.12986328 127.86685059 155.58394531 128.33526367 155.02148438 128.81787109 C153.80928421 129.86657004 152.6057142 130.92528099 151.40820312 131.99072266 C150.78494141 132.54034668 150.16167969 133.0899707 149.51953125 133.65625 C148.95395508 134.16067627 148.38837891 134.66510254 147.80566406 135.18481445 C146.31640625 136.29296875 146.31640625 136.29296875 144.31640625 136.29296875 C148.21361714 140.34726492 152.37131354 143.89940012 156.75390625 147.41796875 C157.45692871 147.98563965 158.15995117 148.55331055 158.88427734 149.13818359 C165.08003276 154.1296347 171.32808316 159.0532287 177.59863281 163.95019531 C180.50912253 166.22530808 183.41235121 168.50965245 186.31640625 170.79296875 C187.48303904 171.70967853 188.64970569 172.62634523 189.81640625 173.54296875 C192.14973958 175.37630208 194.48307292 177.20963542 196.81640625 179.04296875 C197.39382568 179.49663818 197.97124512 179.95030762 198.56616211 180.41772461 C199.73371035 181.33511884 200.90119074 182.25259942 202.06860352 183.17016602 C204.97123415 185.4514112 207.87499899 187.73118089 210.78125 190.0078125 C216.13335723 194.20297217 221.4728295 198.41125455 226.77148438 202.67382812 C232.70311976 207.44533293 238.6897562 212.12836603 244.75390625 216.73046875 C251.04102408 221.50295303 257.19482596 226.41125049 263.29663086 231.41772461 C268.75555494 235.87936459 274.33932253 240.1591026 279.95874023 244.41577148 C285.52298276 248.64637738 290.96918131 253.0049387 296.33203125 257.48828125 C299.73648383 260.30833678 303.1682319 262.90749776 306.875 265.3203125 C317.80635523 272.55109639 317.80635523 272.55109639 319.3515625 277.828125 C319.38646312 282.33030458 318.73524335 286.03645745 317.31640625 290.29296875 C303.31215908 290.5039405 289.30816104 290.66167147 275.30264664 290.7592783 C268.79836962 290.80613855 262.29516425 290.86964345 255.79150391 290.97192383 C249.50848699 291.07010967 243.22649714 291.12361026 236.94277191 291.14686394 C234.55219108 291.16342313 232.16166301 291.19576033 229.77152252 291.24453926 C207.1180529 291.68824173 207.1180529 291.68824173 198.57006836 283.61724854 C197.82635986 282.85023621 197.08265137 282.08322388 196.31640625 281.29296875 C194.60224149 279.94779802 192.87025876 278.62468695 191.11328125 277.3359375 C189.43076126 276.05108019 187.74847311 274.76591923 186.06640625 273.48046875 C179.83556332 268.72535178 173.59458663 263.98542316 167.31640625 259.29296875 C161.20510827 254.72511719 155.13065693 250.11057617 149.06640625 245.48046875 C142.09124827 240.15515019 135.09336818 234.86223837 128.06640625 229.60546875 C120.58414192 224.00667347 113.14236933 218.35830737 105.7265625 212.671875 C100.76518401 208.86751121 95.79071999 205.08039395 90.81640625 201.29296875 C88.15987533 199.26919801 85.50349752 197.24522646 82.84716797 195.22119141 C81.21613226 193.97848255 79.58495798 192.73595555 77.95361328 191.49365234 C75.76123349 189.82365148 73.56993185 188.15224572 71.37890625 186.48046875 C70.76660156 186.01447266 70.15429688 185.54847656 69.5234375 185.06835938 C62.7301818 179.88065255 56.03982567 174.57565544 49.31640625 169.29296875 C49.31640625 208.56296875 49.31640625 247.83296875 49.31640625 288.29296875 C38.09640625 288.41671875 26.87640625 288.54046875 15.31640625 288.66796875 C11.78695312 288.72259277 8.2575 288.7772168 4.62109375 288.83349609 C0.27734375 288.8605957 0.27734375 288.8605957 -1.76269531 288.8656311 C-3.17329294 288.874784 -4.58384656 288.89576098 -5.99414062 288.92642212 C-20.35751464 289.22280983 -20.35751464 289.22280983 -26.25976562 283.83511353 C-26.72962891 283.32620575 -27.19949219 282.81729797 -27.68359375 282.29296875 C-28.46734375 281.44734375 -29.25109375 280.60171875 -30.05859375 279.73046875 C-35.01480173 272.29615678 -34.8319813 263.997024 -34.81730652 255.36245728 C-34.81957208 254.37869027 -34.82183763 253.39492327 -34.82417184 252.38134515 C-34.83048866 249.09357354 -34.82968397 245.8058434 -34.82885742 242.51806641 C-34.83185033 240.15728197 -34.83525317 237.79649802 -34.83903503 235.43571472 C-34.84786516 229.02870186 -34.85021272 222.62170236 -34.85085082 216.21468401 C-34.85134544 212.2109255 -34.853633 208.20716866 -34.85634804 204.2034111 C-34.86514936 190.95401305 -34.86976816 177.70462308 -34.86901756 164.45522209 C-34.86897761 163.74167848 -34.86893765 163.02813488 -34.86889648 162.29296875 C-34.8688556 161.57854989 -34.86881472 160.86413104 -34.8687726 160.12806313 C-34.86836614 148.54979212 -34.87793701 136.97155363 -34.89203485 125.39329202 C-34.90641018 113.49286405 -34.91330442 101.59245193 -34.91244107 89.69201505 C-34.91210954 83.01559779 -34.91503329 76.33920981 -34.92561913 69.66279984 C-34.93530338 63.38372077 -34.93537697 57.10471371 -34.92810249 50.8256321 C-34.92705711 48.52344851 -34.92941677 46.22126043 -34.93546295 43.91908455 C-34.94319222 40.77178775 -34.93853175 37.62473906 -34.93083191 34.47744751 C-34.93597547 33.57071938 -34.94111904 32.66399125 -34.94641846 31.72978652 C-34.8966764 22.50237049 -33.84228441 14.52865479 -27.11328125 7.69921875 C-18.68307082 -0.01272263 -11.07043496 -0.12952985 0 0 Z " fill="#234620" transform="translate(34.68359375,113.70703125)"/>
<path d="M0 0 C1.74720353 10.91227119 2.36720091 21.52359259 2.3125 32.5625 C2.31034485 33.34958344 2.3081897 34.13666687 2.30596924 34.94760132 C2.07360678 88.03704949 -18.385818 136.71210096 -55 175 C-55.87398437 175.92683594 -56.74796875 176.85367188 -57.6484375 177.80859375 C-64.56699484 184.96047487 -71.98972793 191.13143084 -80 197 C-80.84957275 197.62406738 -80.84957275 197.62406738 -81.71630859 198.26074219 C-110.2506469 218.91026908 -143.24698719 230.58704753 -178 235 C-178.99870117 235.14139404 -178.99870117 235.14139404 -180.01757812 235.28564453 C-187.23706351 236.22417763 -194.47937419 236.24352923 -201.75 236.25 C-202.77645126 236.25101212 -202.77645126 236.25101212 -203.82363892 236.25204468 C-215.75481231 236.23345299 -227.29562999 235.40721456 -239 233 C-239.81404297 232.83371094 -240.62808594 232.66742188 -241.46679688 232.49609375 C-251.45176375 230.37830816 -261.12479727 227.447905 -270.75 224.0625 C-271.65484131 223.75094971 -272.55968262 223.43939941 -273.49194336 223.1184082 C-290.268371 216.97649248 -301.62325703 201.66489819 -308.99072266 185.87695312 C-319.23924262 161.93605613 -319.16986659 136.2659138 -310 112 C-303.88958207 97.2497673 -295.04490424 84.50206088 -284 73 C-283.18015625 72.11699219 -282.3603125 71.23398438 -281.515625 70.32421875 C-270.06409297 58.3475425 -256.65342302 49.58422231 -242 42 C-241.34870117 41.6587207 -240.69740234 41.31744141 -240.02636719 40.96582031 C-212.81214857 26.88020444 -181.84244555 19.68696591 -151.3828125 17.5859375 C-140.15650514 16.81097636 -129.73120169 15.1837536 -118.82446289 12.39013672 C-80.56648653 2.71476059 -39.42237282 -0.7910844 0 0 Z " fill="#24773A" transform="translate(1244,169)"/>
<path d="M0 0 C1.79565088 -0.01059839 1.79565088 -0.01059839 3.62757754 -0.02141088 C4.93398361 -0.0189958 6.24038969 -0.01658071 7.58638382 -0.01409245 C8.99511984 -0.01854683 10.40385335 -0.02386153 11.81258321 -0.02996117 C15.67907859 -0.04412752 19.54549353 -0.04580472 23.41201115 -0.04536426 C27.58393195 -0.04701366 31.75581973 -0.06008245 35.92772293 -0.07155704 C45.04758247 -0.09439611 54.16741871 -0.10232639 63.28730297 -0.10738349 C68.98308216 -0.1106416 74.6788546 -0.11716474 80.37462997 -0.12438488 C96.14873792 -0.14394891 111.92283959 -0.16035443 127.69696045 -0.16326141 C128.70615715 -0.16344898 129.71535385 -0.16363655 130.75513227 -0.16382981 C132.8009607 -0.16419605 134.84678913 -0.16455975 136.89261755 -0.16492092 C137.90815039 -0.16510373 138.92368322 -0.16528654 139.96998978 -0.16547489 C141.49515098 -0.16574572 141.49515098 -0.16574572 143.05112353 -0.16602201 C159.52722103 -0.16956381 176.00318785 -0.19658745 192.47924003 -0.23397278 C209.40029096 -0.27206022 226.32127705 -0.29141892 243.2423718 -0.29172093 C252.74084349 -0.29230537 262.23915925 -0.30078945 271.73759079 -0.32971859 C279.82533556 -0.35423823 287.91286752 -0.36151139 296.00063941 -0.34647106 C300.12551848 -0.33930469 304.24997737 -0.34014759 308.37480927 -0.36288166 C312.15514023 -0.38351703 315.93472919 -0.38082963 319.71505252 -0.36000682 C321.72154826 -0.35487611 323.72806116 -0.37425639 325.73445964 -0.39466852 C334.33026203 -0.31502229 341.3254009 1.07686521 347.85613894 6.98617655 C354.29946572 13.66754485 355.40049283 21.38478574 355.2766304 30.27959347 C355.27475723 31.21881145 355.27288406 32.15802944 355.27095413 33.12570858 C355.26426462 35.10322806 355.25041239 37.08073502 355.2297554 39.05815792 C355.19870486 42.05332201 355.18878491 45.04795638 355.1828804 48.04326534 C355.1737035 49.97621433 355.16332556 51.90915807 355.1516304 53.84209347 C355.14738052 54.72266918 355.14313065 55.6032449 355.13875198 56.51050472 C355.06744793 62.85054856 354.52700812 68.89653236 353.9485054 75.26006222 C303.4585054 75.26006222 252.9685054 75.26006222 200.9485054 75.26006222 C200.9485054 145.88006222 200.9485054 216.50006222 200.9485054 289.26006222 C142.15891755 289.26006222 142.15891755 289.26006222 131.9485054 280.26006222 C125.80022161 273.03220826 123.63093844 265.70060484 123.70799637 256.2431097 C123.70628752 255.46533733 123.70457867 254.68756496 123.70281804 253.88622373 C123.69953983 251.29597863 123.71049912 248.70599611 123.72145462 246.11577511 C123.7220191 244.25269737 123.72170146 242.38961919 123.72056961 240.52654171 C123.71999652 235.47955738 123.73174389 230.43266839 123.74571753 225.38570619 C123.75823204 220.10729314 123.75939596 214.82887783 123.76176834 209.55045223 C123.76798098 199.55981993 123.7843889 189.56923147 123.80446732 179.57861847 C123.83101621 166.07489966 123.84180071 152.57116883 123.85347176 139.0674305 C123.87226962 117.7982749 123.91211678 96.52921183 123.9485054 75.26006222 C74.7785054 75.26006222 25.6085054 75.26006222 -25.0514946 75.26006222 C-25.0514946 14.8418804 -25.0514946 14.8418804 -18.9030571 7.79912472 C-18.16829147 7.16748409 -17.43352585 6.53584347 -16.6764946 5.88506222 C-15.94688522 5.23795284 -15.21727585 4.59084347 -14.4655571 3.92412472 C-9.91491095 0.78727155 -5.44867955 0.01030817 0 0 Z " fill="#234620" transform="translate(1318.0514945983887,114.7399377822876)"/>
<path d="M0 0 C7.03098467 6.92244638 13.15390745 14.38511794 19.01977539 22.30688477 C19.95370117 23.54825195 19.95370117 23.54825195 20.90649414 24.81469727 C28.81560521 35.69202951 35.39083368 47.45695368 40.95727539 59.68188477 C41.50520752 60.87467041 41.50520752 60.87467041 42.06420898 62.09155273 C44.68437242 68.01598581 46.46008784 74.02511894 48.01977539 80.30688477 C44.99888151 80.05760362 41.97806226 79.80745811 38.95727539 79.55688477 C37.42744019 79.43035522 37.42744019 79.43035522 35.86669922 79.30126953 C29.12622228 78.74087246 22.38708159 78.16709703 15.64878845 77.58108521 C11.5387918 77.22382422 7.42859003 76.86894928 3.31838989 76.51403809 C1.27066261 76.33655299 -0.77696842 76.15795321 -2.82449341 75.97814941 C-26.97417253 73.85853978 -50.93201363 73.06116817 -75.16772461 73.05688477 C-76.31532949 73.05644291 -76.31532949 73.05644291 -77.48611832 73.05599213 C-125.88239248 73.05298807 -173.83187623 76.7490916 -220.98022461 88.30688477 C-222.72360107 88.72744141 -222.72360107 88.72744141 -224.50219727 89.15649414 C-262.6042807 98.46246195 -298.61289818 112.48673972 -333.7434082 129.85131836 C-335.46938232 130.70137451 -335.46938232 130.70137451 -337.23022461 131.56860352 C-338.75389648 132.32596802 -338.75389648 132.32596802 -340.30834961 133.09863281 C-342.55990213 134.11681021 -344.56802958 134.82336889 -346.98022461 135.30688477 C-346.39091073 115.00502175 -342.43928455 95.52550885 -335.98022461 76.30688477 C-335.76172852 75.63173828 -335.54323242 74.9565918 -335.31811523 74.26098633 C-320.59302723 29.1116011 -286.5821853 -9.01401489 -245.98022461 -32.69311523 C-244.90973877 -33.31984131 -244.90973877 -33.31984131 -243.81762695 -33.95922852 C-219.7824517 -47.81931738 -192.59688203 -56.13710545 -164.98022461 -58.69311523 C-164.31700195 -58.7548291 -163.6537793 -58.81654297 -162.97045898 -58.88012695 C-102.06509069 -64.21996971 -43.81134248 -42.20951248 0 0 Z " fill="#247739" transform="translate(1187.980224609375,59.693115234375)"/>
<path d="M0 0 C8.8409752 -0.09299464 17.68178004 -0.16391343 26.523139 -0.20724869 C30.62929086 -0.22805557 34.73510621 -0.25624539 38.84106445 -0.30175781 C42.80925837 -0.34546408 46.77713016 -0.3691889 50.74554634 -0.37950897 C52.25371936 -0.3868562 53.76187627 -0.40120301 55.26991081 -0.42292023 C64.7989211 -0.55459441 72.32030659 -0.01782098 80.26953125 5.60546875 C89.12075176 14.68077079 90.15558327 24.50654177 90.12025452 36.70602417 C90.12110894 37.78512499 90.12196337 38.86422581 90.12284368 39.97602665 C90.12449082 43.59194481 90.11898961 47.20781658 90.11352539 50.82373047 C90.11324333 53.41571552 90.11340163 56.00770066 90.1139679 58.59968567 C90.11449178 64.18009801 90.11135913 69.76049865 90.10573006 75.34090805 C90.09759671 83.40920337 90.09499795 91.47749303 90.09374207 99.545792 C90.09155443 112.636651 90.08490216 125.72750376 90.07543945 138.81835938 C90.06625788 151.53352833 90.05918069 164.24869559 90.05493164 176.96386719 C90.05466892 177.74787068 90.05440619 178.53187418 90.05413551 179.33963536 C90.05283045 183.27282228 90.05156675 187.20600921 90.05032361 191.13919616 C90.03995998 223.75946865 90.0223495 256.37973349 90 289 C81.56740773 289.06981514 73.13493822 289.12296998 64.70212746 289.15543652 C60.78552595 289.17102661 56.86912363 289.19214147 52.95263672 289.22631836 C49.1659998 289.25915161 45.37955328 289.27690294 41.59278488 289.28463173 C40.15523664 289.2901326 38.71769764 289.30087329 37.28023148 289.31719017 C26.3170342 289.43657365 16.57675594 288.89084489 7.7578125 281.75 C3.81460857 277.82432142 0.21280456 272.59378719 -0.1241985 266.90256864 C-0.12381878 266.08654965 -0.12343906 265.27053066 -0.12304783 264.42978382 C-0.12503888 263.48677727 -0.12702993 262.54377071 -0.12908131 261.5721882 C-0.12616847 260.53426163 -0.12325563 259.49633506 -0.12025452 258.42695618 C-0.12110894 257.32591732 -0.12196337 256.22487846 -0.12284368 255.09047478 C-0.12449747 251.38232172 -0.11897873 247.67421339 -0.11352539 243.96606445 C-0.11324347 241.3154083 -0.11335726 238.66475493 -0.1139679 236.01409912 C-0.11449272 230.29776352 -0.11135023 224.58143932 -0.10573006 218.86510658 C-0.09760947 210.60020875 -0.09499926 202.33531643 -0.09374207 194.07041504 C-0.09155243 180.66176771 -0.08489473 167.25312645 -0.07543945 153.84448242 C-0.06626306 140.81779002 -0.05918334 127.79109927 -0.05493164 114.7644043 C-0.05466892 113.96169066 -0.05440619 113.15897702 -0.05413551 112.33193872 C-0.05283049 108.30503547 -0.05156678 104.2781322 -0.05032361 100.25122893 C-0.03995374 66.83414821 -0.02233781 33.41707485 0 0 Z " fill="#244520" transform="translate(2070,115)"/>
<path d="M0 0 C-2.40505047 2.40505047 -4.15976132 2.83928011 -7.3984375 3.84765625 C-8.50767578 4.20069824 -9.61691406 4.55374023 -10.75976562 4.91748047 C-12.54930664 5.48426514 -12.54930664 5.48426514 -14.375 6.0625 C-53.37505925 18.78639796 -90.84305432 39.98598843 -110.7578125 77.29296875 C-115.51409982 87.10430516 -119.53608683 98.00139187 -120 109 C-120.0515625 110.07378906 -120.103125 111.14757812 -120.15625 112.25390625 C-120.88246499 141.27224701 -108.63968535 166.13502234 -89 187 C-88.41089844 187.66515625 -87.82179688 188.3303125 -87.21484375 189.015625 C-75.74574098 201.41738008 -58.73253557 211.10411774 -43 217 C-43 217.33 -43 217.66 -43 218 C-50.22607724 219.14343191 -57.32501179 219.24358515 -64.625 219.25 C-65.31429596 219.25067474 -66.00359192 219.25134949 -66.71377563 219.25204468 C-78.68274769 219.2335021 -90.25836456 218.41487887 -102 216 C-102.81404297 215.83371094 -103.62808594 215.66742188 -104.46679688 215.49609375 C-114.45176375 213.37830816 -124.12479727 210.447905 -133.75 207.0625 C-134.65484131 206.75094971 -135.55968262 206.43939941 -136.49194336 206.1184082 C-153.268371 199.97649248 -164.62325703 184.66489819 -171.99072266 168.87695312 C-182.23924262 144.93605613 -182.16986659 119.2659138 -173 95 C-166.88958207 80.2497673 -158.04490424 67.50206088 -147 56 C-146.18015625 55.11699219 -145.3603125 54.23398438 -144.515625 53.32421875 C-133.06409297 41.3475425 -119.65342302 32.58422231 -105 25 C-104.34870117 24.6587207 -103.69740234 24.31744141 -103.02636719 23.96582031 C-72.04201381 7.92884692 -34.88396918 -0.32480418 0 0 Z " fill="#5FBC56" transform="translate(1107,186)"/>
<path d="M0 0 C2.3166066 0.00564638 4.63320585 0.00846358 6.94981766 0.0110817 C30.78685355 0.05020544 54.45228728 0.60924136 78.15535355 3.31805801 C79.43249222 3.46301712 79.43249222 3.46301712 80.73543167 3.61090469 C114.9464394 7.52548124 114.9464394 7.52548124 126.15535355 10.31805801 C126.81535355 12.95805801 127.47535355 15.59805801 128.15535355 18.31805801 C120.2185723 18.45746761 112.4353677 18.00329456 104.53035355 17.33758926 C89.12105061 16.14960855 73.76781666 15.95974492 58.32403564 16 C56.11661328 16.0056573 53.90919865 16.00846701 51.70177078 16.0110817 C29.73344666 16.04888053 7.96875723 16.52914211 -13.84464645 19.31805801 C-15.24453672 19.49149538 -16.64443935 19.66483299 -18.04435349 19.83807755 C-103.25266597 30.55041613 -186.90227759 59.99099874 -260.90616989 103.53094864 C-265.65304181 106.31805801 -265.65304181 106.31805801 -267.84464645 106.31805801 C-268.33316798 103.31933468 -268.8104384 100.31943765 -269.28214645 97.31805801 C-269.41685349 96.49821426 -269.55156052 95.67837051 -269.69034958 94.83368301 C-270.95469082 86.69255894 -271.41218826 78.53669721 -271.84464645 70.31805801 C-208.9195373 37.14827939 -143.63323635 13.41215088 -72.96964645 4.06805801 C-71.83261276 3.91691544 -70.69557907 3.76577286 -69.52408981 3.6100502 C-65.63552241 3.12721498 -61.74374858 2.70432141 -57.84464645 2.31805801 C-56.97064194 2.23085495 -56.09663742 2.14365189 -55.19614792 2.0538063 C-36.79526235 0.28281991 -18.46649403 -0.04575071 0 0 Z " fill="#237639" transform="translate(1112.8446464538574,137.68194198608398)"/>
<path d="M0 0 C1.06539001 0.00027191 2.13078003 0.00054382 3.22845459 0.00082397 C33.07325183 0.0356705 62.66633951 1.53785729 91.9375 7.75 C92.92943359 7.95987549 93.92136719 8.16975098 94.94335938 8.38598633 C95.85537109 8.5898999 96.76738281 8.79381348 97.70703125 9.00390625 C98.51374268 9.18381104 99.3204541 9.36371582 100.15161133 9.54907227 C102.125 10.1875 102.125 10.1875 104.125 12.1875 C95.78788354 11.70290822 87.45946075 11.16022581 79.13671875 10.46875 C78.37432892 10.4054248 77.61193909 10.34209961 76.82644653 10.27685547 C73.71328231 10.01680391 70.6003159 9.75450944 67.48754883 9.48974609 C62.03537275 9.02760981 56.58188633 8.59041733 51.125 8.1875 C50.4205777 8.13517212 49.7161554 8.08284424 48.99038696 8.02893066 C32.33483362 6.84597825 15.62623314 6.94044956 -1.0625 6.9375 C-2.21010489 6.93705814 -2.21010489 6.93705814 -3.38089371 6.93660736 C-51.77716787 6.9336033 -99.72665162 10.62970683 -146.875 22.1875 C-148.03725098 22.46787109 -149.19950195 22.74824219 -150.39697266 23.03710938 C-188.49905609 32.34307719 -224.50767357 46.36735495 -259.63818359 63.73193359 C-260.78883301 64.2986377 -261.93948242 64.8653418 -263.125 65.44921875 C-264.64867187 66.20658325 -264.64867187 66.20658325 -266.203125 66.97924805 C-268.45467752 67.99742544 -270.46280497 68.70398412 -272.875 69.1875 C-272.73379984 66.60383755 -272.58721667 64.02067115 -272.4375 61.4375 C-272.39818359 60.70789063 -272.35886719 59.97828125 -272.31835938 59.2265625 C-272.1992957 57.21163879 -272.03860996 55.19929658 -271.875 53.1875 C-271.82432373 52.50292725 -271.77364746 51.81835449 -271.72143555 51.11303711 C-270.875 49.1875 -270.875 49.1875 -268.37597656 47.7746582 C-267.26706055 47.35015381 -266.15814453 46.92564941 -265.015625 46.48828125 C-264.1049099 46.1339502 -264.1049099 46.1339502 -263.17579651 45.77246094 C-261.16514788 44.99718855 -259.1461637 44.24739426 -257.125 43.5 C-255.70788975 42.96583623 -254.29081667 42.43157385 -252.8737793 41.8972168 C-218.44387408 29.02853246 -182.83389804 20.14374198 -146.65966797 13.85058594 C-142.97849988 13.20563351 -139.30361784 12.53223123 -135.62890625 11.8515625 C-111.09452471 7.37062682 -86.39537574 4.66535944 -61.5625 2.5 C-60.87267029 2.43915222 -60.18284058 2.37830444 -59.47210693 2.31561279 C-39.66408852 0.58865632 -19.87937562 -0.01925278 0 0 Z " fill="#5EBB56" transform="translate(1113.875,125.8125)"/>
</svg>
